<?xml version="1.0" encoding="UTF-8"?>
<svg xmlns="http://www.w3.org/2000/svg" width="129" height="31" viewBox="0 0 129 31">
  <title>adobe</title>
  <g fill-rule="nonzero" fill="none">
    <path d="M44.268 22.974l-1.383 7.016h-5.188L44.12.79h6.324l5.83 29.2h-5.187l-1.384-7.016h-5.435zm4.99-4.1l-1.086-6.325c-.297-1.828-.692-4.693-.989-6.67h-.098c-.297 1.977-.741 4.892-1.087 6.67l-1.137 6.324h4.398zM73.32 0v23.962c0 1.878.098 4.25.197 6.077h-4.595l-.296-2.42h-.099c-.79 1.482-2.42 2.766-4.397 2.766-4.397 0-6.522-4.792-6.522-10.87 0-7.41 3.261-10.968 6.769-10.968 1.828 0 3.063.89 3.656 2.174h.099V0h5.188zm-5.336 16.947c0-.396 0-.84-.1-1.236-.197-1.432-.987-2.766-2.222-2.766-2.125 0-2.915 3.063-2.915 6.62 0 4.1 1.136 6.472 2.816 6.472.79 0 1.68-.395 2.174-2.124a4.76 4.76 0 0 0 .197-1.334v-5.632h.05zM84.19 30.336c-4.843 0-7.906-3.903-7.906-10.87 0-7.608 3.953-10.968 8.053-10.968 4.842 0 7.856 4.1 7.856 10.87-.05 8.695-4.743 10.968-8.004 10.968zm.098-4.002c2.026 0 2.52-3.805 2.52-6.917 0-2.965-.494-6.868-2.619-6.868-2.223 0-2.717 3.903-2.717 6.868.05 3.557.642 6.917 2.816 6.917zM95.108 0h5.287v11.018h.098c1.038-1.63 2.421-2.57 4.447-2.57 4.002 0 5.978 4.497 5.978 10.425 0 7.46-3.014 11.463-6.867 11.463-1.878 0-3.064-.84-4.2-2.866h-.099l-.296 2.52H94.91c.1-1.779.198-4.15.198-6.077V0zm5.287 22.43c0 .544.098 1.038.197 1.335.544 1.778 1.433 2.223 2.125 2.223 2.025 0 2.865-2.57 2.865-6.72 0-3.754-.89-6.323-2.915-6.323-.988 0-1.828 1.087-2.124 2.272a5.791 5.791 0 0 0-.198 1.334v5.88h.05zM118.23 21.097c.05 3.853 2.075 5.089 4.595 5.089 1.581 0 2.965-.346 4.002-.742l.741 3.805c-1.383.593-3.557.988-5.632.988-5.682 0-8.745-3.854-8.745-10.474 0-7.065 3.607-11.314 8.3-11.314 4.546 0 7.065 3.754 7.065 9.88 0 1.384-.049 2.175-.148 2.817l-10.178-.05zm5.336-3.706c0-2.964-.84-5.089-2.52-5.089-1.926 0-2.717 2.816-2.816 5.09h5.336z" fill="#010101"></path>
    <path fill="#ED1C2E" d="M21.047.445H33.35v29.397zM12.352.445H0v29.397zM16.7 11.265l7.855 18.577h-5.188l-2.322-5.93h-5.78z"></path>
    <path d="M35.375.395c.643 0 1.137.494 1.137 1.137 0 .642-.494 1.136-1.137 1.136a1.118 1.118 0 0 1-1.136-1.136c0-.643.494-1.137 1.136-1.137zm0 .198c-.494 0-.938.445-.938.939 0 .543.395.938.938.938.494 0 .89-.444.89-.938 0-.544-.396-.94-.89-.94zm-.197 1.58h-.247V.94c.098 0 .197-.05.395-.05.197 0 .346.05.395.1.05.049.099.147.099.246 0 .148-.099.247-.247.297.099 0 .197.098.197.296.05.198.05.296.05.296h-.247c.05 0 0-.098 0-.247-.05-.148-.099-.197-.247-.197h-.148v.494zm0-.69h.148c.148 0 .296-.05.296-.198 0-.1-.099-.198-.296-.198h-.148v.395z" fill="#010101"></path>
  </g>
</svg>
