<?xml version="1.0" encoding="utf-8"?>
<!-- Generator: Adobe Illustrator 23.0.1, SVG Export Plug-In . SVG Version: 6.00 Build 0)  -->
<svg version="1.1" id="Layer_1" xmlns="http://www.w3.org/2000/svg" xmlns:xlink="http://www.w3.org/1999/xlink" x="0px" y="0px"
	 viewBox="0 0 400 75" style="enable-background:new 0 0 400 75;" xml:space="preserve">
<style type="text/css">
	.st0{fill:#0DBDFF;}
	.st1{fill:#333333;}
</style>
<g>
	<path class="st0" d="M80.2,36.8c0-20.1-15.8-36.4-36.4-36.4c-13.2,0-25.3,7.1-31.8,18.6l17.7,17.7l0,0c0-7.8,6.5-14,14-14
		c7.8,0,14,6.3,14,14c0,7.8-6.3,14-14,14H13.6C6.1,50.8,0,56.9,0,64.4c0,0,0,0,0,0v8.8h43.8c20,0.1,36.2-16,36.4-35.9
		C80.2,37.1,80.2,37,80.2,36.8"/>
	<path class="st1" d="M245.8,32.6h17c6.6,0,10-3.1,10-8.9c0-5.9-3.4-9-10-9h-17V32.6z M255.6,46.7h-9.8v26.5h-15.2V8.6
		c0-4.5,3.7-8.2,8.2-8.2h24.4c15.7,0,25.3,9.5,25.3,23.1c0,10.9-6.1,19.2-16.8,22.1l18.9,27.5h-18.2L255.6,46.7z M400,71.3
		c-3,1.9-6.5,3.3-10.3,3.3c-10.5,0-15.3-7.2-15.3-17.3V4.3l14.4-3.5v56.5c0,2.9,1.4,4.6,3.9,4.6c0.8,0,1.7-0.2,2.4-0.5L400,71.3z
		 M374.9,71.3c-3,1.9-6.5,3.3-10.3,3.3c-10.5,0-15.4-7.2-15.4-17.3v-47l14.4-3.6v50.6c0,2.9,1.4,4.6,3.9,4.6c0.8,0,1.7-0.2,2.4-0.5
		L374.9,71.3z M329.7,46.9c0-8.4-5.4-14.2-13.5-14.2c-8.1,0-13.5,5.7-13.5,14.2c0,8.5,5.4,14.2,13.5,14.2
		C324.3,61.1,329.7,55.4,329.7,46.9 M287.9,46.9c0-16.2,11.9-27.5,28.2-27.5c16.4,0,28.3,11.2,28.3,27.5c0,16.3-12,27.6-28.3,27.6
		C299.8,74.6,287.9,63.2,287.9,46.9 M122.1,43.8L132.5,16l10.4,27.8H122.1z M121.6,5.6L95,73.2h16.1l5.7-15.2h31.3l5.7,15.2H170
		L141.4,0.4h-12.1C125.9,0.4,122.8,2.5,121.6,5.6 M195.9,61.1c-8,0-13.5-5.7-13.5-14.2c0-8.5,5.5-14.2,13.5-14.2
		c8,0,13.5,5.7,13.5,14.2C209.4,55.6,203.8,61.1,195.9,61.1 M208.5,25.9c-3.5-4.2-9-6.5-15.5-6.5c-14.1,0-25.3,11.2-25.3,27.4
		c0,16.3,11.3,27.7,24.9,27.7c7.3,0,13-3.2,16.7-8.5l0.6,7.2h12.9V0.4h-6.1c-4.5,0-8.2,3.7-8.2,8.2l0,0V25.9z"/>
</g>
</svg>
