<?xml version="1.0" encoding="UTF-8"?>
<svg xmlns="http://www.w3.org/2000/svg" width="150" height="29" viewBox="0 0 150 29">
  <title>cloudera</title>
  <g fill-rule="nonzero" fill="#004D6F">
    <path d="M129.025 6.538c-1.526 0-2.876.2-4.226.574-.574.2-1.35.375-1.924.776-.2-.2-.375-.375-.375-.575-.575-.576-1.15-.775-1.925-.775H117.7v21.85h5.75v-11.3c0-2.3.374-3.076 1.15-3.826.574-.774 1.725-1.15 3.25-1.15h2.5v-5.55h-1.325M24.725.013H21.85v25.7c0 .775.2 1.35.775 1.925s1.15.774 1.925.774h2.875V2.687c0-.774-.2-1.35-.775-1.924-.6-.375-1.175-.75-1.925-.75M39.675 23.987c3.45 0 4.4-3.649 4.4-6.525 0-3.075-1.15-6.7-4.4-6.7-3.45 0-4.4 3.65-4.4 6.7-.2 3.075.95 6.525 4.4 6.525zm0-18.024c6.525 0 9.975 4.224 9.975 11.3 0 7.099-3.65 11.299-9.975 11.299-6.525 0-9.975-4.225-9.975-11.3 0-6.9 3.25-11.3 9.975-11.3zM9.95 23.987c-3.25 0-4.4-3.45-4.4-6.525s.95-6.7 4.4-6.7c1.725 0 2.875.95 3.65 2.3h5.95c-1.15-4.6-4.4-7.1-9.575-7.1C3.45 5.963 0 10.188 0 17.263c0 7.1 3.45 11.3 9.975 11.3 4.975 0 8.25-2.674 9.575-7.1H15.7s-.95 0-1.725.575c-.95.975-1.725 1.95-4.025 1.95zM69.975 7.288c-.575-.575-1.15-.776-1.925-.776h-2.875v13.8c0 1.35-.375 2.3-1.15 2.876-.775.574-1.725.95-2.675.95-.95 0-1.925-.376-2.675-.95-.775-.575-1.15-1.526-1.15-2.876V9.388c0-.776-.2-1.35-.775-1.925-.575-.576-1.15-.775-1.925-.775H51.95v12.65c0 3.824 1.15 6.325 3.075 7.675 1.925 1.35 4.025 1.725 6.525 1.725 2.3 0 4.6-.375 6.525-1.725 1.925-1.35 3.075-3.65 3.075-7.676V9.362c-.425-.724-.6-1.5-1.175-2.074zM92.6.788c-.576-.576-1.15-.775-1.926-.775H87.8v8.25c-.95-.776-2.676-2.1-5.55-2.1-5.75 0-9.2 4.225-9.2 11.3 0 7.075 3.45 11.3 10.15 11.3 6.525 0 10.15-4.225 10.15-11.125V2.688c0-.75-.375-1.325-.75-1.9zm-9.4 23.2c-3.45 0-4.4-3.65-4.4-6.526 0-3.075.95-6.7 4.4-6.7s4.6 3.65 4.6 6.526c-.2 3.25-1.15 6.7-4.6 6.7zM115.4 16.112c0 .375-.2.95-.375 1.35-.2.2-.2.375-.375.776-.576.574-1.15.775-1.926.775h-11.7c.2 2.675 1.526 5.175 4.4 5.175 2.1 0 2.875-.95 4.026-1.926.574-.574 1.725-.574 1.725-.574H115c-1.15 4.4-4.4 7.1-9.575 7.1-6.525 0-9.975-4.225-9.975-11.3 0-7.1 3.45-11.3 9.975-11.3 4.974 0 8.25 2.675 9.575 7.1.2.775.375 1.725.375 2.675v.15h.025zm-9.975-5.374c-2.3 0-3.825 1.725-4.026 3.825h8.25c0-2.1-1.924-3.825-4.224-3.825zM149.525 12.088c0-1.925-.775-3.45-2.3-4.6-1.525-.95-3.826-1.525-6.9-1.525-2.675 0-4.8.575-6.325 1.925-1.35 1.15-2.1 2.5-2.3 4.225h5.55c.2-.775.775-1.15 1.35-1.35.575-.2 1.35-.375 2.1-.375.95 0 1.525.2 2.3.375.774.2 1.35.774 1.35 1.524 0 .95-1.15 1.725-3.65 1.926-2.875.375-5.176.774-7.276 2.3-1.35.949-2.1 2.674-2.1 4.974 0 2.5.776 4.225 2.3 5.175 1.35.95 3.45 1.725 6.7 1.725 3.075 0 5.376-.575 6.9-1.725 1.526-1.15 2.501-2.3 2.501-4.6v-9.974h-.2zm-6.126 10.75c-.949.774-2.1 1.35-3.649 1.35-.375 0-1.925-.201-2.675-.775-.375-.375-.775-.95-.775-1.725 0-.576.2-1.151.574-1.526.776-.775 1.725-.95 3.65-1.35 1.35-.2 2.875-.775 3.651-1.15v1.725c0 1.326 0 2.476-.776 3.45z"></path>
  </g>
</svg>
