<?xml version="1.0" encoding="UTF-8"?>
<svg xmlns="http://www.w3.org/2000/svg" width="150" height="43" viewBox="0 0 150 43">
  <title>docusign</title>
  <g fill-rule="nonzero" fill="none">
    <path fill="#000" d="M79.515 28.155h7.177v1.478h-7.177zM90.019 28.156h7.177v1.477h-7.177zM68.98 28.156h7.177v1.478H68.98zM111.057 28.156h7.177v1.478h-7.177zM121.592 28.156h7.177v1.478h-7.177zM100.553 28.156h7.177v1.477h-7.177zM142.63 28.156h7.177v1.478h-7.177zM132.096 28.156h7.177v1.478h-7.177zM.658 29.418h7.67c6.377 0 12.044-3.725 12.044-10.62 0-7.82-5.79-10.745-12.66-10.745H.658v21.365zM5.34 12.394h2.803c3.974 0 7.33 1.97 7.33 6.157 0 4.864-3.295 6.526-7.669 6.526H5.34V12.394zM21.389 22.06c0 4.71 3.634 7.728 8.162 7.728 4.528 0 8.132-3.018 8.132-7.727 0-4.65-3.604-7.666-8.132-7.666s-8.162 3.017-8.162 7.666m4.528 0c0-2.187 1.356-3.695 3.635-3.695 2.25 0 3.604 1.508 3.604 3.695 0 2.216-1.355 3.724-3.604 3.724-2.28 0-3.635-1.508-3.635-3.724M52.377 16.334c-1.417-1.447-3.512-1.94-5.237-1.94-4.528 0-8.163 3.018-8.163 7.667 0 4.71 3.635 7.727 8.163 7.727 1.725 0 3.82-.523 5.237-1.97l-2.988-3.14c-.524.585-1.263 1.108-2.25 1.108-2.248 0-3.634-1.508-3.634-3.725 0-2.185 1.386-3.694 3.635-3.694.924 0 1.787.493 2.25 1.108l2.987-3.14zM67.84 14.733H63.28v7.328c0 1.877-.339 3.724-2.71 3.724-2.31 0-2.341-2.155-2.341-3.848v-7.204H53.7v8.097c0 3.941.832 6.958 5.422 6.958 2.218 0 3.696-1.232 4.281-2.371h.062v2.002h4.374V14.733z"></path>
    <path d="M109.085 25.94c-.77-.77 7.085-7.05 9.457-6.711-.893 2.709-8.686 7.511-9.457 6.71m9.272 2.617c1.048-1.354 4.036-8.682 4.036-9.759 0-1.755-1.603-2.678-3.328-2.678-5.698 0-14.908 9.697-16.849 9.697-2.187 0 1.171-4.648 1.171-6.465 0-1.2-1.078-2.463-1.941-2.463-1.694 0-6.992 5.05-10.473 6.22.77-1.294 1.14-2.71 1.14-3.48 0-6.219-17.589-3.91-17.589-7.388 0-3.14 10.997-8.559 17.466-8.559.924 0 6.869.4 6.869 2.463 0 .77-1.294 1.047-1.294 1.817s.647.924 1.418.924c1.17 0 1.94-1.047 1.94-2.34 0-5.265-4.59-6.342-8.285-6.342-9.52 0-20.854 8.282-20.854 12.037 0 4.926 16.079 4.002 16.079 8.405 0 5.295-17.25 10.098-17.25 11.39 0 1.294.925 1.17 1.941 1.17 6.992 0 25.382-11.636 26.952-13.207.125 2.71-1.016 5.296-1.016 6.466s.892 2.74 2.187 2.74c1.294 0 3.234-1.94 6.069-3.51-.124.924.677 2.339 1.693 2.339 2.188 0 8.933-5.449 10.227-6.342-.308 2.432-1.88 5.296-2.772 6.403-.616-.185-1.54-.277-2.187-.277-2.68 0-10.042 7.82-10.042 11.483 0 1.417.77 2.833 2.187 2.833 1.97 0 9.117-5.91 11.736-11.852 1.14.123 3.019.985 3.019.061-.001-.892-1.234-1.508-2.25-1.786m-11.92 10.498c-.462 0-.77-.183-.77-1.23 0-3.325 6.93-8.035 9.364-8.035-1.417 3.047-7.301 9.265-8.595 9.265m-2.278-29.339c0-.984.738-1.754 1.632-1.754.893 0 1.633.77 1.633 1.754 0 .955-.74 1.755-1.633 1.755-.894 0-1.632-.8-1.632-1.755m21.777 12.5c-.925 1.14-3.234 3.879-3.234 4.895 0 1.046.492 1.693 1.293 1.693 1.941 0 8.286-7.634 11.243-7.634 2.218 0-1.417 7.881 3.388 7.881 1.725 0 7.515-3.817 7.515-6.034 0-.4-.4-1.078-.923-1.078-.308 0-4.282 4.803-5.945 4.803-1.449 0 0-2.987 0-4.926 0-2.032-.308-3.756-2.341-3.756-2.71 0-6.592 3.51-7.516 4.002.4-.77.523-1.139.523-1.662 0-1.047-1.293-2.217-2.34-2.217-.894 0-5.669 2.463-5.669 5.603.001.77 2.836-1.97 4.006-1.57" fill="#157EC1"></path>
    <path d="M145.865 36.931h.554V35.7h.401l.77 1.231h.585l-.8-1.262c.4-.062.708-.308.708-.862 0-.585-.339-.894-1.047-.894h-1.171v3.018zm.554-2.556h.4c.34 0 .709.03.709.431 0 .4-.37.43-.709.43h-.4v-.86zm-2.218 1.047a2.681 2.681 0 0 0 2.68 2.678c1.448 0 2.65-1.2 2.65-2.678a2.668 2.668 0 0 0-2.65-2.648c-1.479 0-2.68 1.201-2.68 2.648zm.493 0c0-1.2.986-2.155 2.187-2.155 1.202 0 2.188.954 2.188 2.155 0 1.231-.986 2.217-2.188 2.217-1.201 0-2.187-.985-2.187-2.217z" fill="#000"></path>
  </g>
</svg>
