<?xml version="1.0" encoding="utf-8"?>
<!-- Generator: Adobe Illustrator 23.0.1, SVG Export Plug-In . SVG Version: 6.00 Build 0)  -->
<svg version="1.1" id="Layer_1" xmlns="http://www.w3.org/2000/svg" xmlns:xlink="http://www.w3.org/1999/xlink" x="0px" y="0px"
	 viewBox="0 0 200 36" style="enable-background:new 0 0 200 36;" xml:space="preserve">
<style type="text/css">
	.st0{fill-rule:evenodd;clip-rule:evenodd;fill:#F05537;}
</style>
<g>
	<path class="st0" d="M186.3,17.5c2.7-0.6,5.4,0.5,6.9,2.6l-11.9,2.7C181.7,20.3,183.6,18.1,186.3,17.5z M193.2,27.4
		c-0.9,1.4-2.4,2.3-4,2.7c-2.7,0.6-5.4-0.5-6.9-2.6l11.9-2.7l1.9-0.4l3.7-0.8c0-0.8-0.1-1.6-0.3-2.4c-1.5-6.4-8.1-10.4-14.6-8.9
		c-6.6,1.5-10.6,7.9-9.1,14.3c1.5,6.4,8.1,10.4,14.6,8.9c3.9-0.9,6.9-3.5,8.4-6.8L193.2,27.4z M165.1,35.1v-17h-3.7v-5.8h3.7v-8h6.2
		v8h4.7v5.8h-4.7v17H165.1z M153.2,35.1h6V12.3h-6V35.1z M152.4,4.3c0-2.1,1.7-3.7,3.8-3.7s3.8,1.6,3.8,3.7c0,2.1-1.6,3.7-3.8,3.7
		S152.4,6.4,152.4,4.3z M151.1,12.3c-3.1,0.2-4.9,0.6-6.8,2v-2h-6v22.8h6V23.9c0-3.5,0.9-5.5,6.8-5.7L151.1,12.3L151.1,12.3z
		 M117.5,24.1c0.2,3.3,3.1,6.1,6.6,6.1c3.6,0,6.6-2.9,6.6-6.4c0-3.4-3-6.4-6.6-6.4c-3.6,0-6.5,2.8-6.6,6.1V24.1z M111.6,35.1V1.4
		l6-1.4v14c1.9-1.5,4.1-2.1,6.5-2.1c6.9,0,12.4,5.3,12.4,11.9c0,6.6-5.5,12-12.4,12c-2.4,0-4.6-0.6-6.5-2.1v1.5L111.6,35.1
		L111.6,35.1z M98.8,35.1V18h-3.7v-5.7h3.7v-8l6.2-1.4v9.4h4.7V18H105v17.2H98.8z M87.7,35.1V22.9c0-4.4-2.4-5.4-4.8-5.4
		c-2.4,0-4.8,0.9-4.8,5.3v12.3h-6V12.3h6V14c1.3-1,2.9-2.1,6.1-2.1c5.1,0,9.5,2.9,9.5,10.1v13.2H87.7z M56.8,17.5
		c2.7-0.6,5.4,0.5,6.9,2.6l-11.9,2.7C52.2,20.3,54.1,18.1,56.8,17.5z M63.8,27.4c-0.9,1.4-2.4,2.3-4,2.7c-2.7,0.6-5.4-0.5-6.9-2.6
		l11.9-2.7l1.9-0.4l3.7-0.8c0-0.8-0.1-1.6-0.3-2.4c-1.5-6.4-8.1-10.4-14.6-8.9c-6.6,1.5-10.6,7.9-9.1,14.3
		c1.5,6.4,8.1,10.4,14.6,8.9c3.9-0.9,6.9-3.5,8.4-6.8C69.4,28.7,63.8,27.4,63.8,27.4z M32.2,35.1l-9.4-22.8h6.6l5.9,15.5l6-15.5h6.6
		l-9.4,22.8H32.2z M11.1,17.5c2.7-0.6,5.4,0.5,6.9,2.6L6,22.8C6.4,20.3,8.4,18.1,11.1,17.5z M18,27.4c-0.9,1.4-2.4,2.3-4,2.7
		c-2.7,0.6-5.4-0.5-6.9-2.6l11.9-2.7l1.9-0.4l3.7-0.8c0-0.8-0.1-1.6-0.3-2.4c-1.5-6.4-8.1-10.4-14.6-8.9c-6.6,1.5-10.6,7.9-9.1,14.3
		c1.5,6.4,8.1,10.4,14.6,8.9c3.9-0.9,6.9-3.5,8.4-6.8L18,27.4L18,27.4z"/>
</g>
</svg>
