<?xml version="1.0" encoding="utf-8"?>
<!-- Generator: Adobe Illustrator 23.0.1, SVG Export Plug-In . SVG Version: 6.00 Build 0)  -->
<svg version="1.1" id="Layer_1" xmlns="http://www.w3.org/2000/svg" xmlns:xlink="http://www.w3.org/1999/xlink" x="0px" y="0px"
	 viewBox="0 0 10 10" width="10" height="10" style="enable-background:new 0 0 10 10;" xml:space="preserve">
<style type="text/css">
	.st0{fill:#5951FF;}
</style>
<g>
	<path class="st0" d="M8.9,0c0.3,0,0.6,0.1,0.8,0.3S10,0.8,10,1.1v7.9c0,0.3-0.1,0.6-0.3,0.8S9.2,10,8.9,10H1.1
		c-0.3,0-0.6-0.1-0.8-0.3S0,9.2,0,8.9V1.1c0-0.3,0.1-0.6,0.3-0.8S0.8,0,1.1,0H8.9z M9.3,8.9V1.1c0-0.1,0-0.2-0.1-0.3
		C9.1,0.7,9,0.7,8.9,0.7H1.1c-0.1,0-0.2,0-0.3,0.1S0.7,1,0.7,1.1v7.9c0,0.1,0,0.2,0.1,0.3C0.9,9.3,1,9.3,1.1,9.3h7.9
		c0.1,0,0.2,0,0.3-0.1C9.3,9.1,9.3,9,9.3,8.9z M2.2,7.7l0.1,0.1c0.1,0.1,0.1,0.1,0.2,0.1s0.1,0,0.2-0.1l4.4-4.4l0,0v2
		c0,0.1,0,0.1,0.1,0.2c0.1,0.1,0.1,0.1,0.2,0.1h0.2c0.1,0,0.1,0,0.2-0.1c0.1-0.1,0.1-0.1,0.1-0.2v-3c0-0.1,0-0.1-0.1-0.2
		C7.7,2.2,7.7,2.1,7.6,2.1h-3c-0.1,0-0.1,0-0.2,0.1C4.3,2.3,4.3,2.3,4.3,2.4v0.2c0,0.1,0,0.1,0.1,0.2c0.1,0.1,0.1,0.1,0.2,0.1h2l0,0
		L2.2,7.3c-0.1,0-0.1,0.1-0.1,0.2S2.2,7.6,2.2,7.7z"/>
</g>
</svg>
