<?xml version="1.0" encoding="utf-8"?>
<!-- Generator: Adobe Illustrator 23.0.1, SVG Export Plug-In . SVG Version: 6.00 Build 0)  -->
<svg version="1.1" id="Layer_1" xmlns="http://www.w3.org/2000/svg" xmlns:xlink="http://www.w3.org/1999/xlink" x="0px" y="0px"
	 viewBox="0 0 437 84" style="enable-background:new 0 0 437 84;" xml:space="preserve">
<style type="text/css">
	.st0{fill:#0CAA41;}
</style>
<g>
	<g>
		<path id="wordmark_3_" class="st0" d="M47.4,18.4H37.3c-0.6,0-1,0.5-1,1v5.4c-2.5-4.2-7.9-7.6-15-7.6C9.8,17.3,0,25.9,0,41.2
			c0,15.3,9.3,23.7,21.6,23.7c6.6,0,11.8-2.7,14.8-7.1v2.9c0,6.6-3.2,11.9-13.5,11.9c-5.2,0-9.3-1.7-13-5c-0.5-0.4-1.2-0.3-1.5,0.2
			l-4.5,7.6c-0.6,0.9-0.5,1.5-0.1,1.9C8.5,81.5,14.6,84,23.5,84c19.4,0,25-10.8,25-22.7v-42C48.4,18.8,48,18.4,47.4,18.4z
			 M24.5,53.7c-6.9,0-12.1-4.9-12.1-12.4S17.7,29,24.5,29s12,4.7,12,12.4C36.5,48.9,31.4,53.7,24.5,53.7z M70.7,1v62.4
			c0,0.6-0.5,1-1,1H59.5c-0.6,0-1-0.5-1-1V1c0-0.6,0.5-1,1-1h10.2C70.2,0,70.7,0.5,70.7,1z M100.7,17.4c-9.6,0-16.9,3.2-20.2,9.6
			c-0.2,0.5-0.1,1,0.4,1.3l7.4,5.3c0.5,0.4,1.1,0.2,1.4-0.3c2.1-3.7,6.6-4.9,11-4.9c5.5,0,8,1.9,8,4.6v0.8c0,1.1-0.7,1.7-2.4,1.9
			l-12.7,1.1c-8.5,0.8-14.7,6-14.7,14.4c0,8.5,6.4,14.3,15.6,14.3c7.2,0,11.8-3.5,14.2-7.2v5.2c0,0.6,0.5,1,1,1h10.1
			c0.6,0,1-0.5,1-1V36.1C120.9,23.3,114.1,17.4,100.7,17.4z M108.8,45.9c0,5.1-4.2,9.4-10.6,9.4c-4.2,0-6.5-1.9-6.5-4.9
			c0-2.5,2-4.5,5.7-5.1l11.4-1.4L108.8,45.9z M169.4,50.5c0,10.5-7.6,15-19.9,15c-8.5,0-15.8-2.3-19.9-7c-0.3-0.4-0.3-0.9,0-1.3
			l5.9-7.6c0.4-0.5,1.1-0.5,1.5-0.1c3.1,3.1,7.8,5.1,13.8,5.1c3.4,0,6.1-0.9,6.1-3.5c0-2.5-2.5-3-10.2-4.7
			c-6.8-1.4-15.3-4.5-15.3-14.5c0-9.3,7.4-14.6,19.4-14.6c7.9,0,13.6,2.4,17.7,6.1c0.4,0.4,0.4,0.9,0.1,1.4L163,32
			c-0.4,0.5-1,0.6-1.4,0.2c-2.7-2.5-7.3-4-11.7-4c-3.8,0-5.9,1.2-5.9,3.2c0,2.3,2.5,2.8,10.7,4.6C162.6,37.8,169.4,40.9,169.4,50.5z
			 M216.1,50.5c0,10.5-7.6,15-19.9,15c-8.5,0-15.8-2.3-19.9-7c-0.3-0.4-0.3-0.9,0-1.3l5.9-7.6c0.4-0.5,1.1-0.5,1.5-0.1
			c3.1,3.1,7.8,5.1,13.8,5.1c3.4,0,6.1-0.9,6.1-3.5c0-2.5-2.5-3-10.2-4.7c-6.8-1.4-15.3-4.5-15.3-14.5c0-9.3,7.4-14.6,19.4-14.6
			c7.9,0,13.6,2.4,17.7,6.1c0.4,0.4,0.4,0.9,0.1,1.4l-5.6,7.2c-0.4,0.5-1,0.6-1.4,0.2c-2.7-2.5-7.3-4-11.7-4c-3.8,0-5.9,1.2-5.9,3.2
			c0,2.3,2.5,2.8,10.7,4.6C209.3,37.8,216.1,40.9,216.1,50.5z M270.2,0h-10.1c-0.6,0-1,0.5-1,1v24c-3.1-4.4-8.3-7.8-15.5-7.8
			c-11.2,0-20.8,8.7-20.8,24.3s9.5,24.2,21,24.2c6.7,0,12-2.9,15.3-7.6v5.4c0,0.6,0.5,1,1,1h10.1c0.6,0,1-0.5,1-1V0.9
			C271.2,0.5,270.8,0,270.2,0z M247.4,53.8c-6.9,0-12.1-4.9-12.1-12.4s5.2-12.4,12.1-12.4c6.8,0,12.1,4.7,12.1,12.4
			C259.4,49,254.2,53.8,247.4,53.8z M303.5,17.3c-14.2,0-24.7,9.7-24.7,24.2c0,14.3,10.6,24.2,24.7,24.2c14.2,0,24.7-9.7,24.7-24.2
			C328.3,27.1,317.7,17.3,303.5,17.3z M303.5,53.6c-6.9,0-12.3-4.9-12.3-12.3s5.4-12.3,12.3-12.3s12.3,4.9,12.3,12.3
			C315.7,48.8,310.4,53.6,303.5,53.6z M359.7,17.3c-14.2,0-24.7,9.7-24.7,24.2c0,14.3,10.6,24.2,24.7,24.2
			c14.2,0,24.7-9.7,24.7-24.2C384.5,27.1,374,17.3,359.7,17.3z M359.7,53.6c-6.9,0-12.3-4.9-12.3-12.3s5.4-12.3,12.3-12.3
			S372,34,372,41.3C372,48.8,366.7,53.6,359.7,53.6z M424.4,19.4c0-0.5-0.4-0.9-0.8-1.1c-0.9-0.5-2.4-0.8-5.2-0.8
			c-6.4,0-12.2,3.2-14.6,8.5v-6.5c0-0.6-0.5-1-1-1h-9.6c-0.6,0-1,0.5-1,1v44c0,0.6,0.5,1,1,1h10.1c0.6,0,1-0.5,1-1V43.6
			c0-8.9,6.1-13.2,14.2-13.2c1.9,0,3.8,0.4,4.6,0.8c0.7,0.2,1.3-0.3,1.3-0.9V19.4z"/>
	</g>
	<g>
		<path class="st0" d="M429.7,15.9c0-0.3,0-0.7,0.1-1c0.1-0.3,0.2-0.6,0.4-0.9s0.4-0.5,0.6-0.7c0.2-0.2,0.5-0.4,0.7-0.6
			c0.3-0.2,0.6-0.3,0.9-0.4c0.3-0.1,0.6-0.1,1-0.1c0.3,0,0.7,0,1,0.1c0.3,0.1,0.6,0.2,0.9,0.4c0.3,0.2,0.5,0.4,0.7,0.6
			c0.2,0.2,0.4,0.5,0.6,0.7c0.2,0.3,0.3,0.6,0.4,0.9c0.1,0.3,0.1,0.6,0.1,1c0,0.3,0,0.7-0.1,1c-0.1,0.3-0.2,0.6-0.4,0.9
			c-0.2,0.3-0.4,0.5-0.6,0.7c-0.2,0.2-0.5,0.4-0.7,0.6c-0.3,0.2-0.6,0.3-0.9,0.4c-0.3,0.1-0.6,0.1-1,0.1c-0.3,0-0.7,0-1-0.1
			c-0.3-0.1-0.6-0.2-0.9-0.4c-0.3-0.2-0.5-0.4-0.7-0.6c-0.2-0.2-0.4-0.5-0.6-0.7c-0.2-0.3-0.3-0.6-0.4-0.9
			C429.7,16.5,429.7,16.2,429.7,15.9z M430.2,15.9c0,0.3,0,0.6,0.1,0.9c0.1,0.3,0.2,0.5,0.3,0.8c0.1,0.2,0.3,0.5,0.5,0.7
			c0.2,0.2,0.4,0.4,0.6,0.5c0.2,0.1,0.5,0.2,0.8,0.3c0.3,0.1,0.6,0.1,0.8,0.1c0.4,0,0.9-0.1,1.2-0.3c0.4-0.2,0.7-0.4,1-0.7
			c0.3-0.3,0.5-0.6,0.7-1c0.2-0.4,0.2-0.8,0.2-1.3c0-0.3,0-0.6-0.1-0.9c-0.1-0.3-0.2-0.5-0.3-0.8c-0.1-0.2-0.3-0.5-0.5-0.7
			c-0.2-0.2-0.4-0.4-0.6-0.5c-0.2-0.1-0.5-0.2-0.8-0.3c-0.3-0.1-0.6-0.1-0.9-0.1c-0.4,0-0.9,0.1-1.2,0.3c-0.4,0.2-0.7,0.4-1,0.7
			c-0.3,0.3-0.5,0.6-0.7,1C430.2,15,430.2,15.4,430.2,15.9z M432.6,16.3v1.8h-0.8v-4.5h1.4c0.6,0,1,0.1,1.3,0.3
			c0.3,0.2,0.4,0.5,0.4,0.9c0,0.3-0.1,0.6-0.3,0.8c-0.2,0.2-0.4,0.4-0.8,0.5c0.1,0,0.1,0.1,0.1,0.1c0,0.1,0.1,0.1,0.1,0.2l1.1,1.7
			h-0.7c-0.1,0-0.2,0-0.2-0.1l-1-1.5c0,0-0.1-0.1-0.1-0.1c0,0-0.1,0-0.2,0H432.6z M432.6,15.7h0.6c0.2,0,0.3,0,0.5-0.1
			c0.1,0,0.2-0.1,0.3-0.2c0.1-0.1,0.1-0.1,0.2-0.2c0-0.1,0.1-0.2,0.1-0.3c0-0.1,0-0.2,0-0.3c0-0.1-0.1-0.2-0.2-0.2
			c-0.1-0.1-0.2-0.1-0.3-0.1c-0.1,0-0.3,0-0.4,0h-0.7V15.7z"/>
	</g>
</g>
</svg>
