<?xml version="1.0" encoding="UTF-8"?>
<svg xmlns="http://www.w3.org/2000/svg" width="150" height="33" viewBox="0 0 150 33">
  <g fill="none">
    <path fill="#777" d="M150,14.6346217 L150,11.9967928 L146.724178,11.9967928 L146.724178,7.89547697 L146.614145,7.92952303 L143.536924,8.87072368 L143.47648,8.88922697 L143.47648,11.9967928 L138.619984,11.9967928 L138.619984,10.265625 C138.619984,9.45962171 138.800082,8.84259868 139.155345,8.43133224 C139.508141,8.025 140.012911,7.81825658 140.656086,7.81825658 C141.118668,7.81825658 141.59778,7.92730263 142.079852,8.1421875 L142.200493,8.19621711 L142.200493,5.41776316 L142.143997,5.39703947 C141.694243,5.23544408 141.082401,5.15402961 140.324507,5.15402961 C139.368997,5.15402961 138.500576,5.36175987 137.743668,5.77401316 C136.98602,6.18675987 136.389967,6.77590461 135.97278,7.52491776 C135.556332,8.27319079 135.345395,9.13717105 135.345395,10.0934211 L135.345395,11.9967928 L133.064309,11.9967928 L133.064309,14.6346217 L135.345395,14.6346217 L135.345395,25.7479441 L138.619984,25.7479441 L138.619984,14.6346217 L143.47648,14.6346217 L143.47648,21.6969572 C143.47648,24.6054276 144.848438,26.0797697 147.553865,26.0797697 C147.998684,26.0797697 148.466447,26.0274671 148.944326,25.9253289 C149.430839,25.8207237 149.761924,25.7158717 149.956826,25.6043586 L150,25.5789474 L150,22.9166941 L149.866776,23.004523 C149.689145,23.1231908 149.467845,23.2199013 149.208306,23.2916941 C148.947533,23.3649671 148.730181,23.401727 148.561431,23.401727 C147.927632,23.401727 147.458635,23.2310033 147.167763,22.89375 C146.873684,22.5537829 146.724178,21.9587171 146.724178,21.1268092 L146.724178,14.6346217 L150,14.6346217 L150,14.6346217 Z M125.751563,23.4019737 C124.563158,23.4019737 123.626151,23.0077303 122.965461,22.2315789 C122.301316,21.4512336 121.964309,20.3388158 121.964309,18.9256579 C121.964309,17.4675987 122.301069,16.3263158 122.965954,15.5321546 C123.626645,14.7434211 124.55477,14.3432566 125.725164,14.3432566 C126.860526,14.3432566 127.764227,14.7254112 128.411595,15.4800987 C129.062664,16.2384868 129.392516,17.3708882 129.392516,18.8459704 C129.392516,20.3395559 129.082155,21.4862664 128.469819,22.2535362 C127.861678,23.0151316 126.947368,23.4019737 125.751563,23.4019737 L125.751563,23.4019737 Z M125.897368,11.6652138 C123.629852,11.6652138 121.828865,12.3296053 120.544737,13.6401316 C119.261595,14.9506579 118.610773,16.7644737 118.610773,19.0314967 C118.610773,21.1845395 119.245806,22.9162007 120.498602,24.1778783 C121.751398,25.4400493 123.456168,26.079523 125.565789,26.079523 C127.763734,26.079523 129.528701,25.4060033 130.812829,24.0772204 C132.09597,22.7499178 132.746546,20.9536184 132.746546,18.7396382 C132.746546,16.5527961 132.136184,14.8080592 130.932237,13.5547697 C129.727549,12.3009868 128.033388,11.6652138 125.897368,11.6652138 L125.897368,11.6652138 Z M113.330674,11.6652138 C111.788487,11.6652138 110.5125,12.0599507 109.537993,12.8378289 C108.557319,13.620148 108.059951,14.6464638 108.059951,15.8884046 C108.059951,16.5340461 108.167516,17.1074013 108.378701,17.5936678 C108.591365,18.0819079 108.920477,18.5114309 109.357155,18.8721217 C109.791118,19.2296053 110.460691,19.6046053 111.347862,19.9855263 C112.093421,20.2924342 112.649753,20.5522204 113.002796,20.7569901 C113.348191,20.9573191 113.593668,21.1588816 113.731826,21.3552632 C113.86653,21.5472039 113.934622,21.8101974 113.934622,22.1348684 C113.934622,23.0585526 113.242845,23.5080592 111.819326,23.5080592 C111.291365,23.5080592 110.688898,23.3980263 110.028947,23.1804276 C109.36875,22.9633224 108.751974,22.6509868 108.195641,22.2505757 L108.059704,22.153125 L108.059704,25.3055921 L108.109539,25.3287829 C108.573109,25.5426809 109.157072,25.723273 109.845395,25.8651316 C110.53273,26.0069901 111.156908,26.079523 111.699918,26.079523 C113.373355,26.079523 114.721135,25.6830592 115.704523,24.9004934 C116.694572,24.1127467 117.196135,23.0622533 117.196135,21.7771382 C117.196135,20.8502467 116.925987,20.0553454 116.393832,19.4141447 C115.865132,18.7783717 114.948109,18.1949013 113.667928,17.6787829 C112.648273,17.2694901 111.995477,16.9297697 111.725822,16.6692434 C111.466283,16.417352 111.334539,16.0608553 111.334539,15.6098684 C111.334539,15.2099507 111.497122,14.8897204 111.831414,14.6299342 C112.168174,14.3689145 112.636924,14.2364309 113.224836,14.2364309 C113.770313,14.2364309 114.328618,14.3227796 114.883964,14.4915296 C115.438816,14.6605263 115.926069,14.8865132 116.332648,15.1633224 L116.466365,15.2546053 L116.466365,12.264227 L116.415049,12.242023 C116.039803,12.0811678 115.545148,11.9435033 114.943914,11.8317434 C114.345641,11.7214638 113.802878,11.6652138 113.330674,11.6652138 L113.330674,11.6652138 Z M99.523273,23.4019737 C98.3348684,23.4019737 97.3976151,23.0077303 96.7374178,22.2315789 C96.0727796,21.4512336 95.7365132,20.3393092 95.7365132,18.9256579 C95.7365132,17.4675987 96.0727796,16.3263158 96.7381579,15.5321546 C97.3983553,14.7434211 98.3262336,14.3432566 99.496875,14.3432566 C100.63199,14.3432566 101.535938,14.7254112 102.183553,15.4800987 C102.834128,16.2384868 103.164474,17.3708882 103.164474,18.8459704 C103.164474,20.3395559 102.853865,21.4862664 102.24153,22.2535362 C101.633141,23.0151316 100.719326,23.4019737 99.523273,23.4019737 L99.523273,23.4019737 Z M99.6695724,11.6652138 C97.4013158,11.6652138 95.6000822,12.3296053 94.3169408,13.6401316 C93.0337993,14.9506579 92.3822368,16.7644737 92.3822368,19.0314967 C92.3822368,21.1852796 93.0180099,22.9162007 94.2705592,24.1778783 C95.523602,25.4400493 97.228125,26.079523 99.3375,26.079523 C101.534951,26.079523 103.300905,25.4060033 104.584539,24.0772204 C105.867681,22.7499178 106.518257,20.9536184 106.518257,18.7396382 C106.518257,16.5527961 105.907895,14.8080592 104.703701,13.5547697 C103.499013,12.3009868 101.804852,11.6652138 99.6695724,11.6652138 L99.6695724,11.6652138 Z M87.4117599,14.3780428 L87.4117599,11.9967928 L84.1771382,11.9967928 L84.1771382,25.7474507 L87.4117599,25.7474507 L87.4117599,18.7132401 C87.4117599,17.5171875 87.6828947,16.5347862 88.2180099,15.7924342 C88.7464638,15.0589638 89.4503289,14.6874178 90.3098684,14.6874178 C90.6012336,14.6874178 90.9283717,14.7352796 91.2824013,14.8305099 C91.632977,14.925 91.8868421,15.0276316 92.0368421,15.1351974 L92.1727796,15.2336349 L92.1727796,11.9726151 L92.1202303,11.9499178 C91.8189967,11.821875 91.3931743,11.7574836 90.8536184,11.7574836 C90.0409539,11.7574836 89.3134046,12.01875 88.6904605,12.5328947 C88.1432566,12.9848684 87.7480263,13.604852 87.4455592,14.3777961 L87.4117599,14.3777961 L87.4117599,14.3780428 Z M78.3841283,11.6652138 C76.9004112,11.6652138 75.5768092,11.9834704 74.4508224,12.6108553 C73.3226151,13.2394737 72.4502467,14.1372533 71.8564145,15.2785362 C71.2652961,16.4171053 70.9655428,17.7471217 70.9655428,19.2303454 C70.9655428,20.5297697 71.2566612,21.7221217 71.8314967,22.7726151 C72.4068257,23.8253289 73.2212171,24.648602 74.2522204,25.2199836 C75.2814967,25.7903783 76.4711349,26.079523 77.7883224,26.079523 C79.3255757,26.079523 80.6380757,25.7721217 81.6902961,25.1662007 L81.7327303,25.1415296 L81.7327303,22.1780428 L81.5967928,22.2772204 C81.1199013,22.6243421 80.5875,22.901398 80.0141447,23.1012336 C79.4425164,23.3008224 78.9212171,23.401727 78.4645559,23.401727 C77.1949836,23.401727 76.1765625,23.004523 75.4366776,22.2217105 C74.6953125,21.4374178 74.3198191,20.3365954 74.3198191,18.9513158 C74.3198191,17.5574013 74.7115954,16.4279605 75.4842928,15.5950658 C76.2542763,14.7643914 77.2751645,14.3430099 78.5180921,14.3430099 C79.5811678,14.3430099 80.617352,14.7032072 81.5975329,15.4139803 L81.732977,15.5124178 L81.732977,12.3900493 L81.6890625,12.3653783 C81.320477,12.1588816 80.8174342,11.9884046 80.1927632,11.8591283 C79.5703125,11.7305921 78.9624178,11.6652138 78.3841283,11.6652138 L78.3841283,11.6652138 Z M68.7375,11.9967928 L65.5028783,11.9967928 L65.5028783,25.7474507 L68.7375,25.7474507 L68.7375,11.9967928 Z M67.153125,6.13889803 C66.6209704,6.13889803 66.1566612,6.31973684 65.775,6.67894737 C65.3921053,7.03914474 65.1974507,7.49284539 65.1974507,8.02771382 C65.1974507,8.5546875 65.3896382,8.99950658 65.7688322,9.35008224 C66.1455592,9.69967105 66.6113487,9.87680921 67.1528783,9.87680921 C67.6944079,9.87680921 68.1619243,9.69967105 68.5435855,9.35057566 C68.9277138,8.99950658 69.1221217,8.55444079 69.1221217,8.02771382 C69.1221217,7.51134868 68.932648,7.06258224 68.559375,6.69350329 C68.1868421,6.32541118 67.7134046,6.13889803 67.153125,6.13889803 L67.153125,6.13889803 Z M59.0827303,10.9823191 L59.0827303,25.7476974 L62.3837171,25.7476974 L62.3837171,6.56003289 L57.8148849,6.56003289 L52.0073191,20.8122533 L46.3717105,6.56003289 L41.6171053,6.56003289 L41.6171053,25.7476974 L44.7189967,25.7476974 L44.7189967,10.9810855 L44.8258224,10.9810855 L50.7769737,25.7476974 L53.1177632,25.7476974 L58.9759046,10.9823191 L59.0827303,10.9823191 L59.0827303,10.9823191 Z"></path>
    <polygon fill="#F35325" points="15.217 15.364 0 15.364 0 .148 15.217 .148"></polygon>
    <polygon fill="#81BC06" points="32.018 15.364 16.801 15.364 16.801 .148 32.018 .148 32.018 15.364"></polygon>
    <polygon fill="#05A6F0" points="15.216 32.171 0 32.171 0 16.955 15.216 16.955"></polygon>
    <polygon fill="#FFBA08" points="32.018 32.171 16.801 32.171 16.801 16.955 32.018 16.955 32.018 32.171"></polygon>
  </g>
</svg>
