<?xml version="1.0" encoding="utf-8"?>
<svg version="1.1" id="Layer_1" xmlns="http://www.w3.org/2000/svg" xmlns:xlink="http://www.w3.org/1999/xlink" x="0px" y="0px"
	 viewBox="0 0 14 15" width="14" height="15" style="enable-background:new 0 0 14 15;" xml:space="preserve">
<style type="text/css">
	.st0{fill:#777777;}
</style>
<g>
	<path class="st0" d="M13.7,8.8c0.1,0.1,0.2,0.2,0.3,0.4C14,9.3,14,9.4,14,9.6c-0.3,1.1-0.9,2.1-1.7,2.9c-0.1,0.1-0.3,0.2-0.4,0.2
		c-0.2,0-0.3,0-0.4-0.1l-1-0.6c-0.4,0.3-0.8,0.5-1.2,0.7v1.1c0,0.2,0,0.3-0.1,0.4s-0.2,0.2-0.4,0.2c-1.1,0.3-2.2,0.3-3.3,0
		c-0.2,0-0.3-0.1-0.4-0.2c-0.1-0.1-0.1-0.3-0.1-0.4v-1.1c-0.4-0.2-0.9-0.4-1.2-0.7l-1,0.6c-0.1,0.1-0.3,0.1-0.4,0.1
		c-0.2,0-0.3-0.1-0.4-0.2C0.9,11.6,0.4,10.7,0,9.6c0-0.2,0-0.3,0-0.5C0.1,9,0.2,8.8,0.3,8.8l1-0.6c-0.1-0.5-0.1-0.9,0-1.4l-1-0.6
		C0.2,6.2,0.1,6,0.1,5.9S0,5.6,0,5.4c0.3-1.1,0.9-2.1,1.7-2.9C1.8,2.4,2,2.3,2.1,2.3c0.2,0,0.3,0,0.4,0.1l1,0.6
		c0.4-0.3,0.8-0.5,1.2-0.7V1.1c0-0.2,0-0.3,0.1-0.4C5,0.6,5.2,0.5,5.3,0.4c1.1-0.3,2.2-0.3,3.3,0c0.2,0,0.3,0.1,0.4,0.2
		S9.2,1,9.2,1.1v1.1c0.4,0.2,0.9,0.4,1.2,0.7l1-0.6c0.1-0.1,0.3-0.1,0.4-0.1c0.2,0,0.3,0.1,0.4,0.2c0.8,0.8,1.4,1.8,1.7,2.9
		c0,0.2,0,0.3,0,0.5s-0.2,0.3-0.3,0.4l-1,0.6c0.1,0.5,0.1,0.9,0,1.4L13.7,8.8z M11.7,11.7c0.6-0.7,1-1.4,1.3-2.2l-1.3-0.8
		c0.1-0.5,0.1-0.9,0.1-1.2s0-0.7-0.1-1.2L13,5.5c-0.3-0.8-0.7-1.6-1.3-2.2l-1.3,0.8c-0.4-0.4-0.7-0.6-1-0.7C9.1,3.2,8.8,3,8.3,2.9
		V1.3c-0.9-0.2-1.7-0.2-2.6,0v1.6C5.2,3,4.9,3.2,4.6,3.3C4.4,3.5,4,3.7,3.6,4.1L2.3,3.3C1.7,3.9,1.3,4.7,1,5.5l1.3,0.8
		C2.2,6.8,2.2,7.2,2.2,7.5s0,0.7,0.1,1.2L1,9.5c0.3,0.8,0.7,1.6,1.3,2.2l1.3-0.8c0.4,0.4,0.7,0.6,1,0.7s0.6,0.3,1.1,0.5v1.6
		c0.9,0.2,1.7,0.2,2.6,0v-1.6c0.5-0.2,0.9-0.3,1.1-0.5s0.6-0.4,1-0.7L11.7,11.7z M7,4.7c0.8,0,1.4,0.3,2,0.8c0.5,0.5,0.8,1.2,0.8,2
		S9.5,8.9,9,9.5c-0.5,0.5-1.2,0.8-2,0.8S5.6,10,5,9.5c-0.5-0.5-0.8-1.2-0.8-2s0.3-1.4,0.8-2S6.2,4.7,7,4.7z M7,9.4
		c0.5,0,0.9-0.2,1.3-0.6C8.7,8.4,8.9,8,8.9,7.5S8.7,6.6,8.3,6.2C7.9,5.8,7.5,5.6,7,5.6S6.1,5.8,5.7,6.2C5.3,6.6,5.1,7,5.1,7.5
		s0.2,0.9,0.6,1.3C6.1,9.2,6.5,9.4,7,9.4z"/>
</g>
</svg>
