<?xml version="1.0" encoding="utf-8"?>
<!-- Generator: Adobe Illustrator 23.0.1, SVG Export Plug-In . SVG Version: 6.00 Build 0)  -->
<svg version="1.1" id="Layer_1" xmlns="http://www.w3.org/2000/svg" xmlns:xlink="http://www.w3.org/1999/xlink" x="0px" y="0px"
	 viewBox="0 0 14 15" width="14" height="15" style="enable-background:new 0 0 14 15;" xml:space="preserve">
<style type="text/css">
	.st0{fill:#777777;}
	.st0:hover{fill:red;}
</style>
<g>
	<path class="st0" d="M14,13.3c0,0.1,0,0.2,0,0.3c0,0.1-0.1,0.2-0.2,0.2l-0.2,0.1c-0.2,0.1-0.3,0-0.4-0.3c-0.2,0-0.5,0.1-0.9,0.3
		c-0.4,0.2-0.7,0.3-0.9,0.5c0.1,0.3,0,0.5-0.2,0.6l-0.1,0C11.1,15,11,15,11,15c-0.1,0-0.2-0.1-0.3-0.2L7,3.5V14
		c0,0.3-0.1,0.5-0.2,0.7C6.6,14.9,6.4,15,6.2,15H3.9c-0.1,0-0.3,0-0.4-0.1C3.4,14.9,3.2,15,3.1,15H0.8c-0.2,0-0.4-0.1-0.5-0.3
		C0.1,14.5,0,14.3,0,14V1c0-0.3,0.1-0.5,0.2-0.7C0.4,0.1,0.6,0,0.8,0h2.3c0.1,0,0.3,0,0.4,0.1C3.6,0.1,3.8,0,3.9,0h2.3
		c0.2,0,0.4,0.1,0.5,0.3C6.9,0.5,7,0.7,7,1v0.2c0.1,0,0.1,0.1,0.1,0.2v0c0.2,0,0.5-0.1,0.9-0.3C8.5,0.9,8.8,0.8,9,0.7
		C8.9,0.4,9,0.2,9.1,0.1l0.1,0C9.3,0,9.4,0,9.4,0c0.1,0,0.2,0.1,0.3,0.2L14,13.3z M3.1,2.8V1H0.8v1.9H3.1z M3.1,11.2V3.8H0.8v7.5
		H3.1z M3.1,14v-1.9H0.8V14H3.1z M6.2,2.8V1H3.9v1.9H6.2z M6.2,11.2V3.8H3.9v7.5H6.2z M6.2,14v-1.9H3.9V14H6.2z M11.2,13.6
		c0.2-0.1,0.4-0.3,0.8-0.4c0.4-0.2,0.8-0.3,1-0.4L9.2,1.4C9,1.5,8.8,1.7,8.4,1.8C8,2,7.7,2.2,7.4,2.2L11.2,13.6z"/>
</g>
</svg>
