<?xml version="1.0" encoding="utf-8"?>
<!-- Generator: Adobe Illustrator 23.0.1, SVG Export Plug-In . SVG Version: 6.00 Build 0)  -->
<svg version="1.1" id="Layer_1" xmlns="http://www.w3.org/2000/svg" xmlns:xlink="http://www.w3.org/1999/xlink" x="0px" y="0px"
	 viewBox="0 0 14 15" width="14" height="15" style="enable-background:new 0 0 14 15;" xml:space="preserve">
<style type="text/css">
	.st0{fill:#777777;}
</style>
<g>
	<g>
		<g>
			<path class="st0" d="M9.7,8.2c0.8,0,1.5,0.1,2,0.6c0.6,0.3,1.1,0.8,1.5,1.5c0.3,0.7,0.6,1.3,0.6,2v1.2c0,0.3-0.1,0.8-0.5,1
				c-0.3,0.3-0.6,0.5-1,0.5H1.7c-0.3,0-0.8-0.1-1-0.5c-0.3-0.2-0.5-0.6-0.5-1v-1.2c0-0.8,0.1-1.5,0.6-2c0.3-0.6,0.8-1.1,1.5-1.5
				c0.7-0.3,1.3-0.6,2-0.6c0.2,0,0.6,0.1,1,0.2C5.6,8.5,5.9,8.5,6,8.5c0.3,0.1,0.6,0.1,1,0.1c0.3,0,0.7,0,1-0.1c0.1,0,0.3,0,0.6-0.1
				C9.2,8.3,9.5,8.2,9.7,8.2z M12.8,13.5v-1.2c0-0.8-0.3-1.6-0.9-2.2c-0.6-0.7-1.4-0.9-2.2-0.9c-0.1,0-0.3,0-0.7,0.1
				C8.4,9.5,7.7,9.7,7,9.7S5.8,9.5,5.1,9.3C4.7,9.2,4.5,9.2,4.3,9.2c-0.8,0-1.5,0.2-2.2,0.9c-0.6,0.6-0.9,1.4-0.9,2.2v1.2
				c0,0.1,0.1,0.2,0.1,0.3C1.4,14,1.5,14,1.7,14h10.7c0.1,0,0.2-0.1,0.3-0.1C12.8,13.8,12.8,13.6,12.8,13.5z M7,7.8
				c-0.7,0-1.4-0.1-1.9-0.6C4.5,6.9,4,6.5,3.6,5.8C3.3,5.2,3.1,4.5,3.1,3.9s0.1-1.4,0.5-1.9s0.8-1,1.5-1.5S6.3,0,7,0s1.4,0.1,2,0.5
				c0.6,0.5,1,0.9,1.4,1.5C10.8,2.5,11,3.2,11,3.9s-0.2,1.4-0.6,1.9C10.1,6.5,9.6,6.9,9,7.3C8.4,7.6,7.7,7.8,7,7.8z M7,1
				C6.2,1,5.5,1.4,5,1.8c-0.5,0.6-0.8,1.4-0.8,2s0.3,1.5,0.8,2c0.6,0.6,1.4,0.8,2,0.8s1.5-0.3,2-0.8c0.6-0.6,0.9-1.3,0.9-2
				S9.6,2.4,9,1.8C8.6,1.4,7.9,1,7,1z"/>
		</g>
	</g>
</g>
</svg>
