<?xml version="1.0" encoding="utf-8"?>
<!-- Generator: Adobe Illustrator 23.0.1, SVG Export Plug-In . SVG Version: 6.00 Build 0)  -->
<svg version="1.1" id="Layer_1" xmlns="http://www.w3.org/2000/svg" xmlns:xlink="http://www.w3.org/1999/xlink" x="0px" y="0px"
	 viewBox="0 0 14 15" width="14" height="15" style="enable-background:new 0 0 14 15;" xml:space="preserve">
<style type="text/css">
	.st0{fill:#777777;}
</style>
<g>
	<path class="st0" d="M13.4,1.5c0.2,0,0.3,0.1,0.4,0.2C13.9,1.8,14,1.9,14,2.1v10.8c0,0.2-0.1,0.3-0.2,0.4c-0.1,0.1-0.3,0.2-0.4,0.2
		H1.3c-0.3,0-0.6-0.1-0.9-0.4S0,12.6,0,12.3V2.9c0-0.2,0.1-0.3,0.2-0.4c0.1-0.1,0.3-0.2,0.4-0.2h1V2.1c0-0.2,0.1-0.3,0.2-0.4
		s0.3-0.2,0.4-0.2H13.4z M0.8,12.3c0,0.1,0,0.2,0.1,0.3c0.1,0.1,0.2,0.1,0.3,0.1s0.2,0,0.3-0.1c0.1-0.1,0.1-0.2,0.1-0.3V3.1H0.8
		V12.3z M13.2,12.7V2.3H2.5v10c0,0.1,0,0.3-0.1,0.4H13.2z M3.7,8.6c-0.1,0-0.2,0-0.2-0.1S3.4,8.4,3.4,8.3V3.5c0-0.1,0-0.2,0.1-0.2
		s0.1-0.1,0.2-0.1h4.4c0.1,0,0.2,0,0.2,0.1c0.1,0.1,0.1,0.1,0.1,0.2v4.8c0,0.1,0,0.2-0.1,0.2C8.2,8.5,8.2,8.6,8.1,8.6H3.7z
		 M3.4,11.5c0,0.1,0,0.2,0.1,0.2c0.1,0.1,0.1,0.1,0.2,0.1h4.4c0.1,0,0.2,0,0.2-0.1c0.1-0.1,0.1-0.1,0.1-0.2v-0.2
		c0-0.1,0-0.2-0.1-0.2C8.2,11.1,8.2,11,8.1,11H3.7c-0.1,0-0.2,0-0.2,0.1c-0.1,0.1-0.1,0.1-0.1,0.2V11.5z M4.2,4v3.8h3.4V4H4.2z
		 M9.2,6.5c0,0.1,0,0.2,0.1,0.2c0.1,0.1,0.1,0.1,0.2,0.1H12c0.1,0,0.2,0,0.2-0.1c0.1-0.1,0.1-0.1,0.1-0.2V6.3c0-0.1,0-0.2-0.1-0.2
		C12.2,6,12.1,6,12,6H9.6C9.5,6,9.4,6,9.3,6.1C9.3,6.1,9.2,6.2,9.2,6.3V6.5z M9.2,8.2c0,0.1,0,0.2,0.1,0.2s0.1,0.1,0.2,0.1H12
		c0.1,0,0.2,0,0.2-0.1c0.1-0.1,0.1-0.1,0.1-0.2V8c0-0.1,0-0.2-0.1-0.2c-0.1-0.1-0.1-0.1-0.2-0.1H9.6c-0.1,0-0.2,0-0.2,0.1
		C9.3,7.8,9.2,7.9,9.2,8V8.2z M9.2,9.9c0,0.1,0,0.2,0.1,0.2c0.1,0.1,0.1,0.1,0.2,0.1H12c0.1,0,0.2,0,0.2-0.1
		c0.1-0.1,0.1-0.1,0.1-0.2V9.7c0-0.1,0-0.2-0.1-0.2c-0.1-0.1-0.1-0.1-0.2-0.1H9.6c-0.1,0-0.2,0-0.2,0.1C9.3,9.5,9.2,9.6,9.2,9.7V9.9
		z M9.2,11.5c0,0.1,0,0.2,0.1,0.2c0.1,0.1,0.1,0.1,0.2,0.1H12c0.1,0,0.2,0,0.2-0.1c0.1-0.1,0.1-0.1,0.1-0.2v-0.2
		c0-0.1,0-0.2-0.1-0.2C12.2,11.1,12.1,11,12,11H9.6c-0.1,0-0.2,0-0.2,0.1c-0.1,0.1-0.1,0.1-0.1,0.2V11.5z"/>
	<path class="st0" d="M3.4,9.8c0,0.1,0,0.2,0.1,0.2c0.1,0.1,0.1,0.1,0.2,0.1h4.4c0.1,0,0.2,0,0.2-0.1C8.4,10,8.4,9.9,8.4,9.8V9.6
		c0-0.1,0-0.2-0.1-0.2C8.2,9.4,8.2,9.3,8.1,9.3H3.7c-0.1,0-0.2,0-0.2,0.1C3.4,9.5,3.4,9.5,3.4,9.6V9.8z"/>
</g>
</svg>
