<?xml version="1.0" encoding="utf-8"?>
<!-- Generator: Adobe Illustrator 23.0.1, SVG Export Plug-In . SVG Version: 6.00 Build 0)  -->
<svg version="1.1" id="Layer_1" xmlns="http://www.w3.org/2000/svg" xmlns:xlink="http://www.w3.org/1999/xlink" x="0px" y="0px"
	 viewBox="0 0 14 15" width="14" height="15" style="enable-background:new 0 0 14 15;" xml:space="preserve">
<style type="text/css">
	.st0{fill:#777777;}
</style>
<g>
	<path class="st0" d="M13.4,4.5c0.2,0.1,0.3,0.2,0.4,0.3S14,5.2,14,5.4s-0.1,0.4-0.2,0.5c-0.1,0.2-0.3,0.3-0.4,0.3L10.9,7l0.3,4.1
		c0,0.2-0.2,0.5-0.6,0.7s-0.9,0.4-1.5,0.5c-0.6,0.1-1.3,0.2-2.1,0.2s-1.5-0.1-2.1-0.2c-0.6-0.1-1.2-0.3-1.5-0.5s-0.6-0.5-0.6-0.7
		L3.1,7L1.9,6.6C1.9,6.7,1.8,6.8,1.8,6.9C2,7,2.1,7.2,2.1,7.5c0,0.1,0,0.3-0.1,0.4C1.9,7.9,1.8,8,1.7,8.1l0.4,2.4
		c0,0.1,0,0.2-0.1,0.3C2,10.9,1.9,11,1.8,11H1c-0.1,0-0.2,0-0.2-0.1c-0.1-0.1-0.1-0.2-0.1-0.3l0.4-2.4C1,8,0.9,7.9,0.8,7.8
		C0.7,7.7,0.7,7.6,0.7,7.5c0-0.1,0-0.3,0.1-0.4S1,6.9,1.1,6.8c0-0.1,0.1-0.3,0.2-0.4L0.6,6.2C0.4,6.1,0.3,6,0.2,5.9
		C0.1,5.7,0,5.5,0,5.4S0.1,5,0.2,4.8s0.3-0.3,0.4-0.3l5.8-1.9c0.4-0.1,0.8-0.1,1.2,0L13.4,4.5z M13.2,5.5c0.1,0,0.1-0.1,0.1-0.2
		s0-0.1-0.1-0.2L7.4,3.3c-0.2-0.1-0.5-0.1-0.7,0L0.8,5.2c-0.1,0-0.1,0.1-0.1,0.2s0,0.1,0.1,0.2l0.9,0.3C2,5.6,2.2,5.5,2.5,5.5
		l4.5-0.8c0.1,0,0.2,0,0.3,0.1c0.1,0.1,0.1,0.1,0.2,0.2s0,0.2-0.1,0.3C7.2,5.3,7.2,5.3,7.1,5.4L2.8,6.1l3.9,1.2
		c0.2,0.1,0.5,0.1,0.7,0L13.2,5.5z M10.5,11l-0.3-3.8L7.6,8.1c-0.4,0.1-0.8,0.1-1.2,0L3.8,7.2L3.5,11c0.1,0.2,0.5,0.3,1.1,0.5
		c0.7,0.2,1.5,0.3,2.4,0.3s1.7-0.1,2.4-0.3C10,11.3,10.3,11.2,10.5,11z"/>
</g>
</svg>
