<?xml version="1.0" encoding="utf-8"?>
<!-- Generator: Adobe Illustrator 23.0.1, SVG Export Plug-In . SVG Version: 6.00 Build 0)  -->
<svg version="1.1" id="Layer_1" xmlns="http://www.w3.org/2000/svg" xmlns:xlink="http://www.w3.org/1999/xlink" x="0px" y="0px"
	 viewBox="0 0 14 15" width="14" height="15" style="enable-background:new 0 0 14 15;" xml:space="preserve">
<style type="text/css">
	.st0{fill:#777777;}
</style>
<g>
	<path class="st0" d="M7,0c1.2,0,2.3,0.3,3.3,0.9c1,0.6,1.8,1.4,2.4,2.4s0.9,2.1,0.9,3.3s-0.3,2.3-0.9,3.3c-0.6,1-1.3,1.7-2.3,2.3
		c-0.1,0-0.1,0-0.2,0c-0.1,0-0.1-0.1-0.1-0.1l0.1-0.8c0-0.1,0-0.1,0.1-0.1c0.7-0.5,1.3-1.2,1.7-2c0.4-0.8,0.6-1.6,0.6-2.6
		c0-1-0.3-2-0.8-2.9c-0.5-0.9-1.2-1.6-2.1-2.1C8.9,1.2,7.9,0.9,6.9,0.9C5.9,1,5,1.2,4.1,1.7c-0.8,0.5-1.5,1.2-2,2
		C1.6,4.6,1.4,5.5,1.4,6.5c0,0.9,0.2,1.8,0.6,2.6s1,1.5,1.7,2c0,0,0.1,0.1,0.1,0.1L3.9,12c0,0.1,0,0.1-0.1,0.1c-0.1,0-0.1,0-0.2,0
		c-1-0.6-1.7-1.3-2.3-2.3c-0.6-1-0.9-2.1-0.9-3.3s0.3-2.3,0.9-3.3c0.6-1,1.4-1.8,2.4-2.4C4.7,0.3,5.8,0,7,0z M10,9.2
		c0,0.1,0.1,0.1,0.1,0.1c0.1,0,0.1,0,0.1-0.1c0.6-0.8,1-1.7,0.9-2.7c0-0.7-0.2-1.4-0.6-2.1c-0.4-0.6-0.9-1.1-1.5-1.5
		C8.5,2.5,7.8,2.3,7,2.3c-0.8,0-1.5,0.2-2.1,0.6C4.3,3.3,3.7,3.8,3.4,4.4C3,5.1,2.8,5.8,2.8,6.6c0,1,0.3,1.9,0.9,2.6
		c0,0.1,0.1,0.1,0.1,0.1c0.1,0,0.1,0,0.1-0.1C4.1,9,4.2,8.9,4.3,8.7c0.1-0.1,0.1-0.1,0-0.2C3.9,7.9,3.7,7.2,3.7,6.4
		c0-0.9,0.4-1.6,1-2.2c0.6-0.6,1.3-0.9,2.2-1c0.6,0,1.2,0.1,1.7,0.4C9.1,4,9.5,4.4,9.8,4.9s0.5,1.1,0.5,1.7c0,0.7-0.2,1.3-0.6,1.9
		c-0.1,0.1-0.1,0.1,0,0.2C9.8,8.9,9.9,9,10,9.2z M8.9,6.6c0-0.5-0.2-1-0.5-1.3C8,4.9,7.5,4.7,7,4.7c-0.5,0-1,0.2-1.3,0.5
		C5.3,5.6,5.1,6,5.1,6.6s0.2,1,0.5,1.3C6,8.3,6.5,8.4,7,8.4c0.5,0,1-0.2,1.3-0.5C8.7,7.5,8.9,7.1,8.9,6.6z M8.9,10.4
		c0-0.9-0.6-1.3-1.9-1.3c-1.3,0-1.9,0.4-1.9,1.3c0,0.4,0.1,1.1,0.2,2c0.1,0.8,0.3,1.4,0.4,1.9C5.9,14.8,6.3,15,7,15s1.1-0.2,1.3-0.7
		c0.1-0.5,0.3-1.1,0.4-1.9C8.8,11.5,8.9,10.9,8.9,10.4z M7.9,6.6c0,0.3-0.1,0.5-0.3,0.7S7.3,7.5,7,7.5c-0.3,0-0.5-0.1-0.7-0.3
		S6.1,6.8,6.1,6.6s0.1-0.5,0.3-0.7S6.7,5.6,7,5.6c0.3,0,0.5,0.1,0.7,0.3S7.9,6.3,7.9,6.6z M7.9,10.4c0,0.4-0.1,1-0.2,1.8
		C7.6,13,7.5,13.6,7.4,14c-0.1,0-0.2,0.1-0.4,0.1S6.7,14,6.6,14c-0.1-0.4-0.2-1-0.4-1.8c-0.1-0.8-0.2-1.4-0.2-1.8
		c0-0.2,0.2-0.3,0.5-0.3c0.3-0.1,0.6-0.1,0.9,0C7.8,10.2,7.9,10.3,7.9,10.4z"/>
</g>
</svg>
