<?xml version="1.0" encoding="utf-8"?>
<!-- Generator: Adobe Illustrator 23.0.1, SVG Export Plug-In . SVG Version: 6.00 Build 0)  -->
<svg version="1.1" id="Layer_1" xmlns="http://www.w3.org/2000/svg" xmlns:xlink="http://www.w3.org/1999/xlink" x="0px" y="0px"
	 viewBox="0 0 14 15" width="14" height="15" style="enable-background:new 0 0 14 15;" xml:space="preserve">
<style type="text/css">
	.st0{fill:#777777;}
</style>
<g>
	<path class="st0" d="M7,0.5c1.3,0,2.4,0.3,3.5,0.9s1.9,1.5,2.6,2.6C13.7,5.1,14,6.2,14,7.5s-0.3,2.4-0.9,3.5
		c-0.6,1.1-1.5,1.9-2.6,2.6c-1.1,0.6-2.2,0.9-3.5,0.9s-2.4-0.3-3.5-0.9c-1.1-0.6-1.9-1.5-2.6-2.6S0,8.8,0,7.5S0.3,5.1,0.9,4
		s1.5-1.9,2.6-2.6S5.7,0.5,7,0.5z M7,1.4c-1.1,0-2.1,0.3-3.1,0.8S2.3,3.5,1.7,4.4s-0.8,2-0.8,3.1s0.3,2.1,0.8,3.1s1.3,1.7,2.2,2.2
		s2,0.8,3.1,0.8s2.1-0.3,3.1-0.8s1.7-1.3,2.2-2.2s0.8-2,0.8-3.1s-0.3-2.1-0.8-3.1S11,2.8,10,2.2C9.1,1.7,8.1,1.4,7,1.4z M7.2,9.2
		c0.1,0,0.2,0,0.2-0.1s0.1-0.1,0.1-0.2c0-0.2,0.1-0.5,0.3-0.7c0.1-0.1,0.3-0.3,0.6-0.5C8.9,7.4,9.2,7.2,9.3,7
		c0.3-0.3,0.4-0.7,0.4-1.2c0-0.7-0.3-1.2-0.8-1.6C8.4,3.8,7.8,3.5,7,3.5c-0.6,0-1.1,0.1-1.6,0.3c-0.4,0.2-0.7,0.5-1,0.9
		C4.3,4.9,4.3,5,4.3,5.1c0,0.1,0.1,0.2,0.1,0.2l0.4,0.3C4.9,5.6,5,5.6,5.1,5.6s0.2-0.1,0.2-0.1C5.5,5.2,5.8,5,6,4.9
		c0.3-0.1,0.6-0.2,1-0.2c0.5,0,0.9,0.1,1.2,0.4c0.3,0.2,0.4,0.5,0.4,0.8c0,0.2-0.1,0.5-0.3,0.6C8.2,6.6,8,6.7,7.7,6.9
		C7.3,7.2,7,7.4,6.8,7.6C6.6,8,6.4,8.4,6.4,8.9c0,0.1,0,0.2,0.1,0.2s0.1,0.1,0.2,0.1H7.2z M7,9.9c0.2,0,0.4,0.1,0.6,0.2
		s0.2,0.3,0.2,0.6s-0.1,0.4-0.2,0.6S7.2,11.5,7,11.5s-0.4-0.1-0.6-0.2s-0.2-0.3-0.2-0.6s0.1-0.4,0.2-0.6S6.8,9.9,7,9.9z"/>
</g>
</svg>
