<?xml version="1.0" encoding="utf-8"?>
<!-- Generator: Adobe Illustrator 23.0.1, SVG Export Plug-In . SVG Version: 6.00 Build 0)  -->
<svg version="1.1" id="Layer_1" xmlns="http://www.w3.org/2000/svg" xmlns:xlink="http://www.w3.org/1999/xlink" x="0px" y="0px"
	 viewBox="0 0 14 15" width="14" height="15" style="enable-background:new 0 0 14 15;" xml:space="preserve">
<style type="text/css">
	.st0{fill:#777777;}
</style>
<g>
	<path class="st0" d="M12.2,8L12.2,8c-0.3,0.3-0.4,0.4-0.5,0.5S11.6,8.7,11.5,9l0,0.1c-0.1,0.2-0.2,0.4-0.3,0.6l1.4,3.5
		c0.1,0.2,0,0.3-0.1,0.4s-0.2,0.2-0.4,0.2l-1.6-0.1l-1.1,1.1C9.4,15,9.3,15,9.2,15c-0.2,0-0.4-0.1-0.4-0.3l-1.5-3.8
		c-0.2-0.1-0.3-0.1-0.5,0l-1.5,3.8C5.2,14.9,5,15,4.8,15c-0.1,0-0.2,0-0.3-0.1l-1.1-1.1l-1.6,0.1c-0.2,0-0.3-0.1-0.4-0.2
		s-0.1-0.3-0.1-0.4l1.4-3.5C2.7,9.5,2.5,9.3,2.5,9.1l0-0.2C2.4,8.7,2.3,8.5,2.3,8.5S2.1,8.3,1.9,8.1L1.8,8C1.6,7.8,1.5,7.5,1.4,7.2
		s-0.1-0.6,0-0.9l0-0.1C1.5,6,1.6,5.8,1.6,5.7s0-0.2-0.1-0.5l0-0.1c-0.1-0.3-0.1-0.6,0-0.9s0.2-0.5,0.4-0.7l0.1-0.1
		C2.1,3.2,2.2,3,2.3,3s0.1-0.2,0.2-0.5l0-0.2C2.6,2,2.7,1.8,2.9,1.6s0.5-0.4,0.7-0.4l0.1,0C4.1,1,4.2,1,4.3,0.9s0.2-0.2,0.4-0.4
		l0.1-0.1C5,0.3,5.2,0.1,5.5,0.1s0.6-0.1,0.8,0l0.1,0C6.8,0.2,6.9,0.2,7,0.2s0.3,0,0.5-0.1l0.1,0C7.9,0,8.2,0,8.5,0.1S9,0.3,9.2,0.5
		l0.1,0.1c0.2,0.2,0.3,0.3,0.4,0.4S9.9,1,10.2,1.1l0.1,0c0.3,0.1,0.5,0.2,0.7,0.4s0.3,0.5,0.4,0.7l0,0.2c0.1,0.3,0.1,0.4,0.2,0.5
		s0.2,0.2,0.4,0.4l0.1,0.1c0.2,0.2,0.3,0.5,0.4,0.7s0.1,0.6,0,0.9l0,0.1c-0.1,0.3-0.1,0.4-0.1,0.5s0,0.3,0.1,0.5l0,0.1
		c0.1,0.3,0.1,0.6,0,0.9S12.4,7.8,12.2,8z M10.6,8.9L10.6,8.9c0.1-0.5,0.2-0.8,0.3-0.9s0.3-0.3,0.6-0.7h0c0.2-0.2,0.3-0.4,0.2-0.7v0
		c-0.1-0.4-0.2-0.7-0.2-0.9s0.1-0.4,0.2-0.9c0.1-0.3,0-0.5-0.2-0.7c-0.3-0.3-0.5-0.5-0.6-0.7S10.7,3,10.6,2.6V2.5
		c-0.1-0.3-0.2-0.4-0.5-0.5L10,2C9.6,1.9,9.3,1.8,9.2,1.8S8.9,1.5,8.6,1.1C8.4,0.9,8.1,0.9,7.9,1h0C7.4,1.1,7.1,1.1,7,1.1
		S6.6,1.1,6.2,1h0c-0.3-0.1-0.5,0-0.7,0.2L5.4,1.2C5.1,1.5,4.9,1.7,4.8,1.8S4.4,1.9,4,2l-0.1,0C3.6,2.1,3.5,2.3,3.4,2.5v0.1
		C3.3,3,3.2,3.3,3.1,3.4S2.9,3.8,2.5,4.1h0C2.3,4.3,2.3,4.6,2.3,4.8c0.1,0.4,0.2,0.7,0.2,0.9S2.5,6.2,2.3,6.6v0
		c-0.1,0.3,0,0.5,0.2,0.7C2.8,7.6,3,7.9,3.1,8s0.2,0.4,0.3,0.8v0.1c0.1,0.3,0.2,0.4,0.5,0.5L4,9.4c0.3,0.1,0.5,0.1,0.6,0.2
		C4.8,9.7,5,9.9,5.2,10.1c0.1,0.1,0.3,0.2,0.4,0.2s0.3,0,0.5-0.1C6.4,10,6.7,10,7,10s0.6,0.1,0.9,0.2c0.1,0.1,0.3,0.1,0.5,0.1
		s0.3-0.1,0.4-0.2C9,9.9,9.2,9.7,9.3,9.6C9.4,9.6,9.6,9.5,10,9.4l0.1-0.1C10.4,9.3,10.5,9.2,10.6,8.9z M4.7,13.7l1-2.4
		c-0.4,0-0.8-0.2-1.1-0.5h0c-0.1-0.2-0.2-0.2-0.3-0.3s-0.2-0.1-0.4-0.1l-0.2-0.1l-1.1,2.6l1.3-0.1l0.5,0.5
		C4.4,13.4,4.5,13.6,4.7,13.7z M7,2.8c0.8,0,1.4,0.3,2,0.8s0.8,1.2,0.8,2S9.5,7.1,9,7.6S7.8,8.4,7,8.4S5.6,8.2,5,7.6s-0.8-1.2-0.8-2
		s0.3-1.4,0.8-2S6.2,2.8,7,2.8z M7,7.5c0.5,0,0.9-0.2,1.3-0.6s0.6-0.8,0.6-1.3s-0.2-1-0.6-1.3S7.5,3.8,7,3.8S6.1,3.9,5.7,4.3
		S5.1,5.1,5.1,5.6s0.2,1,0.6,1.3S6.5,7.5,7,7.5z M11.5,12.8l-1.1-2.6l-0.2,0.1c-0.2,0.1-0.4,0.1-0.4,0.1s-0.2,0.1-0.3,0.3h0
		c-0.3,0.3-0.6,0.5-1.1,0.5l1,2.4l0.8-0.9l0.4,0C10.8,12.8,11.1,12.8,11.5,12.8z"/>
</g>
</svg>
