<?xml version="1.0" encoding="utf-8"?>
<!-- Generator: Adobe Illustrator 23.0.1, SVG Export Plug-In . SVG Version: 6.00 Build 0)  -->
<svg version="1.1" id="Layer_1" xmlns="http://www.w3.org/2000/svg" xmlns:xlink="http://www.w3.org/1999/xlink" x="0px" y="0px"
	 viewBox="0 0 14 15" width="14" height="15" style="enable-background:new 0 0 14 15;" xml:space="preserve">
<style type="text/css">
	.st0{fill:#777777;}
</style>
<g>
	<path class="st0" d="M14,7.5c0,0.1,0,0.3-0.1,0.4c-0.1,0.1-0.2,0.2-0.3,0.3l-2.7,1.2l2.7,1.2c0.1,0.1,0.2,0.1,0.3,0.3
		C14,10.9,14,11,14,11.1c0,0.1,0,0.3-0.1,0.4c-0.1,0.1-0.2,0.2-0.3,0.2l-6.2,2.7c-0.1,0.1-0.3,0.1-0.4,0.1c-0.1,0-0.3,0-0.4-0.1
		l-6.2-2.7c-0.1-0.1-0.2-0.1-0.3-0.2C0,11.4,0,11.3,0,11.1c0-0.1,0-0.3,0.1-0.4s0.2-0.2,0.3-0.3l2.7-1.2L0.4,8.1
		C0.3,8.1,0.2,8,0.1,7.9C0,7.8,0,7.6,0,7.5c0-0.1,0-0.3,0.1-0.4C0.2,7,0.3,6.9,0.4,6.9l2.7-1.2L0.4,4.5C0.3,4.5,0.2,4.4,0.1,4.3
		C0,4.1,0,4,0,3.9s0-0.3,0.1-0.4c0.1-0.1,0.2-0.2,0.3-0.2l6.2-2.7c0.3-0.1,0.6-0.1,0.9,0l6.2,2.7c0.1,0.1,0.2,0.1,0.3,0.2
		C14,3.6,14,3.7,14,3.9s0,0.3-0.1,0.4c-0.1,0.1-0.2,0.2-0.3,0.3l-2.7,1.2l2.7,1.2c0.1,0.1,0.2,0.1,0.3,0.3C14,7.3,14,7.4,14,7.5z
		 M1.2,3.9l5.7,2.5c0.1,0,0.1,0,0.2,0l5.7-2.5L7.1,1.4c-0.1,0-0.1,0-0.2,0L1.2,3.9z M7.1,10l5.7-2.5l-3-1.3l-2.3,1
		C7.3,7.3,7.1,7.3,7,7.3c-0.1,0-0.3,0-0.4-0.1l-2.3-1l-3,1.3L6.9,10C7,10,7,10,7.1,10z M12.8,11.1l-3-1.3l-2.3,1
		c-0.1,0.1-0.3,0.1-0.4,0.1c-0.1,0-0.3,0-0.4-0.1l-2.3-1l-3,1.3l5.7,2.5c0.1,0,0.1,0,0.2,0L12.8,11.1z"/>
</g>
</svg>
