<?xml version="1.0" encoding="utf-8"?>
<!-- Generator: Adobe Illustrator 23.0.1, SVG Export Plug-In . SVG Version: 6.00 Build 0)  -->
<svg version="1.1" id="Layer_1" xmlns="http://www.w3.org/2000/svg" xmlns:xlink="http://www.w3.org/1999/xlink" x="0px" y="0px"
	 viewBox="0 0 14 15" width="14" height="15" style="enable-background:new 0 0 14 15;" xml:space="preserve">
<style type="text/css">
	.st0{fill:#777777;}
</style>
<g>
	<path class="st0" d="M13.9,11.8c0.1,0.3,0.1,0.5,0,0.8S13.6,13,13.3,13H0.7c-0.3,0-0.5-0.1-0.6-0.4c-0.1-0.3-0.1-0.5,0-0.9l4.5-9.3
		C4.8,2.1,5,2,5.2,2c0.3,0,0.5,0.1,0.6,0.4l1.6,3.1l1.1-2.2C8.7,3,8.8,2.9,9.1,2.9c0.2,0,0.4,0.1,0.6,0.4L13.9,11.8z M0.7,12.1h9
		L5.3,2.9l0,0L0.7,12.1z M10.5,12.1h2.7L9.1,3.8L7.8,6.5l2.6,5.2C10.4,11.8,10.5,12,10.5,12.1z"/>
</g>
</svg>
