<?xml version="1.0" encoding="utf-8"?>
<!-- Generator: Adobe Illustrator 23.0.1, SVG Export Plug-In . SVG Version: 6.00 Build 0)  -->
<svg version="1.1" id="Layer_1" xmlns="http://www.w3.org/2000/svg" xmlns:xlink="http://www.w3.org/1999/xlink" x="0px" y="0px"
	 viewBox="0 0 14 15" width="14" height="15" style="enable-background:new 0 0 14 15;" xml:space="preserve">
<style type="text/css">
	.st0{fill:#777777;}
</style>
<g>
	<path class="st0" d="M13.5,0.6h-13C0.2,0.6,0,0.8,0,1.1s0.2,0.5,0.5,0.5h0.6v6.8c0,0.4,0.1,0.7,0.4,0.9C1.7,9.6,2,9.8,2.4,9.8h4.2
		v2.7l-2.4,1c-0.1,0-0.2,0.1-0.3,0.1c-0.1,0.1-0.1,0.2-0.1,0.3c0,0.1,0,0.2,0.1,0.3c0.1,0.1,0.2,0.1,0.3,0.1l2.9-1l2.9,1
		c0.1,0,0.2,0,0.3-0.1c0.1-0.1,0.1-0.2,0.1-0.3c0-0.1,0-0.3-0.1-0.3c-0.1-0.1-0.2-0.1-0.3-0.1l-2.4-1V9.8h4.2c0.4,0,0.7-0.1,0.9-0.4
		c0.3-0.3,0.4-0.6,0.4-0.9V1.6h0.6c0.3,0,0.5-0.2,0.5-0.5S13.8,0.6,13.5,0.6z M12,8.5c0,0.1,0,0.2-0.1,0.3c-0.1,0.1-0.2,0.1-0.3,0.1
		H2.4c-0.1,0-0.2,0-0.3-0.1C2,8.7,2,8.6,2,8.5V1.6H12V8.5z"/>
</g>
</svg>
