<?xml version="1.0" encoding="utf-8"?>
<!-- Generator: Adobe Illustrator 23.0.1, SVG Export Plug-In . SVG Version: 6.00 Build 0)  -->
<svg version="1.1" id="Layer_1" xmlns="http://www.w3.org/2000/svg" xmlns:xlink="http://www.w3.org/1999/xlink" x="0px" y="0px"
	 viewBox="0 0 14 15" width="14" height="15" style="enable-background:new 0 0 14 15;" xml:space="preserve">
<style type="text/css">
	.st0{fill:#777777;}
</style>
<g>
	<g>
		<g>
			<path class="st0" d="M6.2,1.9c2.1,0,5,0.7,6.2,1.9C12.7,4.1,13,4.6,13,5.3c0,1.6-1.4,4.3-3,6c-0.8,0.8-2,1.8-3.5,1.8
				c-1.5,0-2.7-1.1-3-1.4C2,10.2,1,8,1,6.1c0-1.3,0.4-2.2,1.1-3C2.9,2.4,4.4,1.9,6.2,1.9 M6.2,0.9C4,0.9,2.4,1.5,1.4,2.4
				C0.4,3.5,0,4.7,0,6.1c0,2.2,1.1,4.7,2.7,6.2c0.4,0.4,1.8,1.7,3.7,1.7c1.9,0,3.3-1.2,4.2-2.1c1.7-1.7,3.3-4.7,3.3-6.7
				c0-1.1-0.5-1.8-0.9-2.2C11.6,1.6,8.4,0.9,6.2,0.9L6.2,0.9z"/>
		</g>
	</g>
</g>
</svg>
