<?xml version="1.0" encoding="utf-8"?>
<!-- Generator: Adobe Illustrator 23.0.1, SVG Export Plug-In . SVG Version: 6.00 Build 0)  -->
<svg version="1.1" id="Layer_1" xmlns="http://www.w3.org/2000/svg" xmlns:xlink="http://www.w3.org/1999/xlink" x="0px" y="0px"
	 viewBox="0 0 14 15" width="14" height="15" style="enable-background:new 0 0 14 15;" xml:space="preserve">
<style type="text/css">
	.st0{fill:#777777;}
</style>
<g>
	<path class="st0" d="M5.4,5.5h5.8c0,0,0.1,0,0.2-0.1c0.1-0.1,0.1-0.1,0.1-0.2V4.5c0-0.1,0-0.1-0.1-0.2c-0.1-0.1-0.1-0.1-0.2-0.1
		H5.4c0,0-0.1,0-0.2,0.1C5.2,4.4,5.2,4.5,5.2,4.5v0.7c0,0.1,0,0.1,0.1,0.2C5.3,5.5,5.4,5.5,5.4,5.5z"/>
	<path class="st0" d="M5.4,8.1h5.8c0,0,0.1,0,0.2-0.1c0.1-0.1,0.1-0.1,0.1-0.2V7.2c0-0.1,0-0.1-0.1-0.2c-0.1-0.1-0.1-0.1-0.2-0.1
		H5.4c0,0-0.1,0-0.2,0.1C5.2,7,5.2,7.1,5.2,7.2v0.7c0,0.1,0,0.1,0.1,0.2C5.3,8.1,5.4,8.1,5.4,8.1z"/>
	<path class="st0" d="M5.4,10.7h5.8c0,0,0.1,0,0.2-0.1c0.1-0.1,0.1-0.1,0.1-0.2V9.8c0-0.1,0-0.1-0.1-0.2c-0.1-0.1-0.1-0.1-0.2-0.1
		H5.4c0,0-0.1,0-0.2,0.1C5.2,9.7,5.2,9.7,5.2,9.8v0.7c0,0.1,0,0.1,0.1,0.2C5.3,10.7,5.4,10.7,5.4,10.7z"/>
	<path class="st0" d="M13.7,1.7c-0.3-0.3-0.6-0.4-1-0.4H1.3c-0.4,0-0.7,0.1-1,0.4C0,2-0.1,2.3-0.1,2.7v9.6c0,0.4,0.1,0.7,0.4,1
		c0.3,0.3,0.6,0.4,1,0.4h11.4c0.4,0,0.7-0.1,1-0.4c0.3-0.3,0.4-0.6,0.4-1V2.7C14.1,2.3,14,2,13.7,1.7z M1,2.7c0-0.1,0-0.2,0.1-0.2
		c0.1-0.1,0.1-0.1,0.2-0.1h11.4c0.1,0,0.2,0,0.2,0.1C13,2.5,13,2.6,13,2.7v9.6c0,0.1,0,0.2-0.1,0.2c-0.1,0.1-0.1,0.1-0.2,0.1H1.3
		c-0.1,0-0.2,0-0.2-0.1C1,12.5,1,12.4,1,12.3V2.7z"/>
	<path class="st0" d="M3.5,11.1c0.3,0,0.5-0.1,0.7-0.3c0.2-0.2,0.3-0.4,0.3-0.7S4.4,9.6,4.2,9.4C4,9.2,3.8,9.1,3.5,9.1
		S3,9.2,2.8,9.4c-0.2,0.2-0.3,0.4-0.3,0.7s0.1,0.5,0.3,0.7C3,11,3.2,11.1,3.5,11.1z"/>
	<path class="st0" d="M3.5,8.5c0.3,0,0.5-0.1,0.7-0.3C4.4,8,4.5,7.8,4.5,7.5S4.4,7,4.2,6.8C4,6.6,3.8,6.5,3.5,6.5S3,6.6,2.8,6.8
		C2.6,7,2.5,7.2,2.5,7.5S2.6,8,2.8,8.2C3,8.4,3.2,8.5,3.5,8.5z"/>
	<path class="st0" d="M3.5,5.9c0.3,0,0.5-0.1,0.7-0.3c0.2-0.2,0.3-0.4,0.3-0.7S4.4,4.4,4.2,4.2C4,4,3.8,3.9,3.5,3.9S3,4,2.8,4.2
		C2.6,4.4,2.5,4.6,2.5,4.9s0.1,0.5,0.3,0.7C3,5.8,3.2,5.9,3.5,5.9z"/>
</g>
</svg>
