<?xml version="1.0" encoding="utf-8"?>
<!-- Generator: Adobe Illustrator 23.0.1, SVG Export Plug-In . SVG Version: 6.00 Build 0)  -->
<svg version="1.1" id="Layer_1" xmlns="http://www.w3.org/2000/svg" xmlns:xlink="http://www.w3.org/1999/xlink" x="0px" y="0px"
	 viewBox="0 0 14 15" width="14" height="15" style="enable-background:new 0 0 14 15;" xml:space="preserve">
<style type="text/css">
	.st0{fill:#777777;}
</style>
<g>
	<g>
		<path class="st0" d="M11.3,11.3c-0.1,0-0.2-0.1-0.3-0.2L9,8.4C8.9,8.3,8.9,8.1,9,8l0.5-0.7c0.1-0.2,0.4-0.3,0.6-0.3h0
			c0.3,0,0.5,0.1,0.6,0.3l1.6,2.2c0.1,0.1,0.1,0.3,0,0.4c-0.3,0.4-0.5,0.8-0.8,1.2C11.5,11.2,11.4,11.3,11.3,11.3z M9.8,8.2l1.5,2
			c0.1-0.2,0.2-0.3,0.3-0.5l-1.5-2L9.8,8.2z"/>
	</g>
	<g>
		<path class="st0" d="M6.7,14.1c-0.4,0-0.9-0.1-1.3-0.2c-0.1,0-0.2-0.1-0.3-0.3c0-0.1,0-0.3,0.1-0.4l2.1-2.9L7,10l-2.4,3.2
			c-0.1,0.2-0.3,0.2-0.5,0.1c-0.5-0.3-0.9-0.6-1-0.8c-0.2-0.1-0.2-0.4-0.1-0.6l2.8-3.8L5.4,7.8l-2.7,3.7c-0.1,0.1-0.2,0.2-0.3,0.2
			c-0.1,0-0.2-0.1-0.3-0.1c-0.3-0.4-0.6-0.8-0.8-1.2c-0.1-0.1-0.1-0.3,0-0.4l3.3-4.6c0,0,0,0,0,0c0.4-0.5,1.2-0.5,1.6,0l4.6,6.3
			c0.1,0.2,0.1,0.4,0,0.5c-1.2,1.2-2.5,1.8-3.8,1.9C6.8,14.1,6.8,14.1,6.7,14.1z M6.2,13.3c0.2,0,0.5,0,0.7,0c1.1-0.1,2.1-0.5,3-1.4
			L5.5,5.8c-0.1-0.1-0.2-0.1-0.3,0l-3.2,4.4c0.1,0.1,0.2,0.3,0.3,0.4l2.6-3.5C5,6.9,5.2,6.8,5.4,6.8c0,0,0,0,0,0
			c0.2,0,0.4,0.1,0.5,0.2l0.5,0.7c0.2,0.3,0.2,0.6,0,0.9l-2.5,3.5c0.1,0.1,0.2,0.2,0.4,0.3l2.3-3.2C6.7,9,7.2,9,7.4,9.3L8,10
			c0.2,0.2,0.2,0.5,0,0.8L6.2,13.3z M5.2,7.5C5.2,7.6,5.2,7.6,5.2,7.5L5.2,7.5z"/>
	</g>
	<g>
		<path class="st0" d="M1,9.3C0.9,9.3,0.9,9.3,1,9.3C0.8,9.2,0.6,9.2,0.6,9C0.2,8.2,0.1,7.3,0,6.5C-0.1,5,0.3,3.7,1.3,2.7
			C2.2,1.6,3.9,1,6,0.9c0.2,0,0.4,0,0.6,0c2,0,4.8,0.5,6.3,1.8c0.3,0.3,1,1,1.1,2.3l0,0c0.1,1-0.3,2.2-0.9,3.6
			c-0.1,0.1-0.2,0.2-0.3,0.2c-0.2,0-0.3,0-0.4-0.2l-1.4-1.9c-0.2-0.3-0.5-0.5-0.9-0.5c0,0,0,0,0,0c-0.4,0-0.7,0.2-0.9,0.5L8.9,7.3
			C8.8,7.4,8.7,7.5,8.5,7.5l0,0c-0.1,0-0.2-0.1-0.3-0.2L6.3,4.7c-0.4-0.6-1.4-0.6-1.8,0L1.3,9.1C1.2,9.2,1.1,9.3,1,9.3z M6.6,1.7
			c-0.2,0-0.4,0-0.6,0C4.1,1.8,2.7,2.3,1.9,3.2C1.1,4.1,0.7,5.2,0.8,6.5c0,0.5,0.1,1,0.3,1.5l2.8-3.8c0.7-1,2.4-1,3.1,0l1.6,2.2
			l0.1-0.1C9,5.8,9.5,5.5,10.2,5.5c0,0,0,0,0,0c0.6,0,1.2,0.3,1.5,0.8l1,1.3c0.4-1,0.6-1.9,0.5-2.6v0c0-1-0.6-1.5-0.8-1.7
			C11.2,2.2,8.6,1.7,6.6,1.7z"/>
	</g>
</g>
</svg>
