<?xml version="1.0" encoding="utf-8"?>
<!-- Generator: Adobe Illustrator 23.0.1, SVG Export Plug-In . SVG Version: 6.00 Build 0)  -->
<svg version="1.1" id="Layer_1" xmlns="http://www.w3.org/2000/svg" xmlns:xlink="http://www.w3.org/1999/xlink" x="0px" y="0px"
	 viewBox="0 0 14 15" width="14" height="15" style="enable-background:new 0 0 14 15;" xml:space="preserve">
<style type="text/css">
	.st0{fill:#777777;}
</style>
<path class="st0" d="M5.4,0.4H1.3C0.6,0.4,0,1,0,1.7v4.2c0,0.7,0.6,1.3,1.3,1.3h4.2c0.7,0,1.3-0.6,1.3-1.3V1.7
	C6.7,1,6.1,0.4,5.4,0.4z M0.9,1.7c0-0.2,0.2-0.4,0.4-0.4h4.2c0.2,0,0.4,0.2,0.4,0.4v4.2c0,0.2-0.2,0.4-0.4,0.4H1.3
	C1,6.2,0.9,6.1,0.9,5.8V1.7z"/>
<path class="st0" d="M12.7,0.4H8.6C7.9,0.4,7.3,1,7.3,1.7v4.2c0,0.7,0.6,1.3,1.3,1.3h4.2c0.7,0,1.3-0.6,1.3-1.3V1.7
	C14,1,13.4,0.4,12.7,0.4z M13.1,1.7v4.2c0,0.2-0.2,0.4-0.4,0.4H8.6c-0.2,0-0.4-0.2-0.4-0.4V1.7c0-0.2,0.2-0.4,0.4-0.4h4.2
	C13,1.3,13.1,1.4,13.1,1.7z"/>
<path class="st0" d="M5.4,7.9H1.3C0.6,7.9,0,8.5,0,9.2v4.2c0,0.7,0.6,1.3,1.3,1.3h4.2c0.7,0,1.3-0.6,1.3-1.3V9.2
	C6.7,8.5,6.1,7.9,5.4,7.9z M0.9,9.2c0-0.2,0.2-0.4,0.4-0.4h4.2c0.2,0,0.4,0.2,0.4,0.4v4.2c0,0.2-0.2,0.4-0.4,0.4H1.3
	c-0.2,0-0.4-0.2-0.4-0.4V9.2z"/>
<path class="st0" d="M12.7,7.9H8.6c-0.7,0-1.3,0.6-1.3,1.3v4.2c0,0.7,0.6,1.3,1.3,1.3h4.2c0.7,0,1.3-0.6,1.3-1.3V9.2
	C14,8.5,13.4,7.9,12.7,7.9z M13.1,9.2v4.2c0,0.2-0.2,0.4-0.4,0.4H8.6c-0.2,0-0.4-0.2-0.4-0.4V9.2c0-0.2,0.2-0.4,0.4-0.4h4.2
	C13,8.8,13.1,8.9,13.1,9.2z"/>
</svg>
