<?xml version="1.0" encoding="utf-8"?>
<!-- Generator: Adobe Illustrator 23.0.1, SVG Export Plug-In . SVG Version: 6.00 Build 0)  -->
<svg version="1.1" id="Layer_1" xmlns="http://www.w3.org/2000/svg" xmlns:xlink="http://www.w3.org/1999/xlink" x="0px" y="0px"
	 viewBox="0 0 14 15" width="14" height="15" style="enable-background:new 0 0 14 15;" xml:space="preserve">
<style type="text/css">
	.st0{fill:#777777;}
</style>
<g>
	<path class="st0" d="M12.7,0.4c0.4,0,0.7,0.1,0.9,0.4S14,1.3,14,1.7v7.9c0,0.4-0.1,0.7-0.4,0.9S13,11,12.7,11H7.4v2.8h4.4
		c0.1,0,0.2,0,0.3,0.1s0.1,0.2,0.1,0.3c0,0.1,0,0.2-0.1,0.3s-0.2,0.1-0.3,0.1H2.1c-0.1,0-0.2,0-0.3-0.1s-0.1-0.2-0.1-0.3
		c0-0.1,0-0.2,0.1-0.3s0.2-0.1,0.3-0.1h4.4V11H1.3c-0.4,0-0.7-0.1-0.9-0.4S0,10,0,9.6V1.7C0,1.3,0.1,1,0.4,0.7S1,0.4,1.3,0.4H12.7z
		 M13.1,9.6V1.7c0-0.1,0-0.2-0.1-0.3s-0.2-0.1-0.3-0.1H1.3c-0.1,0-0.2,0-0.3,0.1S0.9,1.6,0.9,1.7v7.9c0,0.1,0,0.2,0.1,0.3
		c0.1,0.1,0.2,0.1,0.3,0.1h11.3c0.1,0,0.2,0,0.3-0.1C13.1,9.9,13.1,9.8,13.1,9.6z"/>
</g>
</svg>
