<?xml version="1.0" encoding="utf-8"?>
<!-- Generator: Adobe Illustrator 23.0.1, SVG Export Plug-In . SVG Version: 6.00 Build 0)  -->
<svg version="1.1" id="Layer_1" xmlns="http://www.w3.org/2000/svg" xmlns:xlink="http://www.w3.org/1999/xlink" x="0px" y="0px"
	 viewBox="0 0 14 15" width="14" height="15" style="enable-background:new 0 0 14 15;" xml:space="preserve">
<style type="text/css">
	.st0{fill:#777777;}
</style>
<g>
	<path class="st0" d="M12.2,1.9c0.4,0,0.7,0.1,1,0.4s0.4,0.6,0.4,1v10.3c0,0.4-0.1,0.7-0.4,1s-0.6,0.4-1,0.4H1.8
		c-0.4,0-0.7-0.1-1-0.4s-0.4-0.6-0.4-1V3.3c0-0.4,0.1-0.7,0.4-1s0.6-0.4,1-0.4h1.4V0.4c0-0.1,0-0.2,0.1-0.2S3.5,0,3.6,0h0.2
		C3.9,0,4,0,4.1,0.1s0.1,0.2,0.1,0.2v1.5h5.6V0.4c0-0.1,0-0.2,0.1-0.2S10.1,0,10.2,0h0.2c0.1,0,0.2,0,0.2,0.1s0.1,0.2,0.1,0.2v1.5
		H12.2z M1.8,2.8c-0.1,0-0.2,0-0.3,0.1S1.4,3.1,1.4,3.3v1.4h11.2V3.3c0-0.1,0-0.2-0.1-0.3s-0.2-0.1-0.3-0.1H1.8z M12.2,14.1
		c0.1,0,0.2,0,0.3-0.1s0.1-0.2,0.1-0.3v-8H1.4v8c0,0.1,0,0.2,0.1,0.3s0.2,0.1,0.3,0.1H12.2z"/>
</g>
</svg>
