<?xml version="1.0" encoding="utf-8"?>
<!-- Generator: Adobe Illustrator 23.0.1, SVG Export Plug-In . SVG Version: 6.00 Build 0)  -->
<svg version="1.1" id="Layer_1" xmlns="http://www.w3.org/2000/svg" xmlns:xlink="http://www.w3.org/1999/xlink" x="0px" y="0px"
	 viewBox="0 0 14 15" width="14" height="15" style="enable-background:new 0 0 14 15;" xml:space="preserve">
<style type="text/css">
	.st0{fill:#777777;}
</style>
<g>
	<path class="st0" d="M12.2,2.9c0.3,0.3,0.4,0.6,0.4,1v9.7c0,0.4-0.1,0.7-0.4,1s-0.6,0.4-1,0.4H2.8c-0.4,0-0.7-0.1-1-0.4
		s-0.4-0.6-0.4-1V1.4c0-0.4,0.1-0.7,0.4-1C2.1,0.2,2.4,0,2.8,0h5.9c0.4,0,0.7,0.1,1,0.4L12.2,2.9z M11.7,13.6V4.7h-3
		c-0.2,0-0.4-0.1-0.5-0.2C8,4.4,7.9,4.2,7.9,4V1H2.8C2.7,1,2.6,1,2.5,1.1C2.4,1.2,2.3,1.3,2.3,1.4v12.1c0,0.1,0,0.2,0.1,0.3
		C2.6,14,2.7,14,2.8,14h8.4c0.1,0,0.2,0,0.3-0.1C11.6,13.8,11.7,13.7,11.7,13.6z M3.5,2.8c-0.1,0-0.1,0-0.2-0.1c0,0-0.1-0.1-0.1-0.2
		V2.1c0-0.1,0-0.1,0.1-0.2c0,0,0.1-0.1,0.2-0.1h3.3c0.1,0,0.1,0,0.2,0.1C7,2,7,2.1,7,2.1v0.5c0,0.1,0,0.1-0.1,0.2
		c0,0-0.1,0.1-0.2,0.1H3.5z M3.5,4.7c-0.1,0-0.1,0-0.2-0.1c0,0-0.1-0.1-0.1-0.2V4c0-0.1,0-0.1,0.1-0.2c0,0,0.1-0.1,0.2-0.1h3.3
		c0.1,0,0.1,0,0.2,0.1C7,3.9,7,3.9,7,4v0.5c0,0.1,0,0.1-0.1,0.2c0,0-0.1,0.1-0.2,0.1H3.5z M3.3,7c0-0.1,0.1-0.2,0.2-0.3
		c0.1-0.1,0.2-0.1,0.4-0.1h6.4c0.1,0,0.3,0,0.4,0.1c0.1,0.1,0.2,0.2,0.2,0.3v2.8c0,0.1-0.1,0.2-0.2,0.3c-0.1,0.1-0.2,0.1-0.4,0.1
		H3.8c-0.1,0-0.3,0-0.4-0.1C3.3,10.1,3.3,10,3.3,9.8V7z M4.2,7.5v1.9h5.6V7.5H4.2z M10.5,12.2c0.1,0,0.1,0,0.2,0.1
		c0,0,0.1,0.1,0.1,0.2v0.5c0,0.1,0,0.1-0.1,0.2c0,0-0.1,0.1-0.2,0.1H8.2c-0.1,0-0.1,0-0.2-0.1c0,0-0.1-0.1-0.1-0.2v-0.5
		c0-0.1,0-0.1,0.1-0.2c0,0,0.1-0.1,0.2-0.1H10.5z M8.9,1v2.8h2.8c0-0.1-0.1-0.1-0.1-0.2L9.1,1.1C9,1.1,8.9,1,8.9,1z"/>
</g>
</svg>
