<?xml version="1.0" encoding="utf-8"?>
<!-- Generator: Adobe Illustrator 23.0.1, SVG Export Plug-In . SVG Version: 6.00 Build 0)  -->
<svg version="1.1" id="Layer_1" xmlns="http://www.w3.org/2000/svg" xmlns:xlink="http://www.w3.org/1999/xlink" x="0px" y="0px"
	 viewBox="0 0 14 15" width="14" height="15" style="enable-background:new 0 0 14 15;" xml:space="preserve">
<style type="text/css">
	.st0{fill:#777777;}
</style>
<path class="st0" d="M12,6.6c-0.2,0-0.4,0-0.6,0.1V3.1c0-0.3-0.2-0.5-0.5-0.5H7.8c0.1-0.2,0.1-0.4,0.1-0.6c0-1.1-1-2-2.2-2
	s-2.2,0.9-2.2,2c0,0.2,0,0.4,0.1,0.6H0.5C0.2,2.7,0,2.9,0,3.1l0,4.3c0,0.1,0,0.2,0,0.3c0.1,0.2,0.2,0.3,0.4,0.3
	c0.1,0,0.3-0.1,0.4-0.1C1,7.6,1.2,7.5,1.5,7.5c0.6,0,1.1,0.6,1.1,1.3c0,0.7-0.5,1.3-1.1,1.3C1.2,10.1,1,10,0.8,9.8
	C0.7,9.7,0.5,9.7,0.4,9.7C0.2,9.7,0.1,9.8,0,10c0,0,0,0.1,0,0.2v4.4C0,14.8,0.2,15,0.5,15h3.9c0.1,0,0.3-0.1,0.3-0.1
	c0.1-0.1,0.2-0.3,0.1-0.5c0,0-0.1-0.1-0.1-0.2c-0.2-0.2-0.3-0.4-0.3-0.7c0-0.6,0.6-1.1,1.3-1.1S7,12.9,7,13.5c0,0.2-0.1,0.5-0.3,0.7
	c-0.1,0.1-0.2,0.3-0.1,0.5C6.7,14.8,6.9,15,7,15H11c0.3,0,0.5-0.2,0.5-0.5v-3.6C11.6,11,11.8,11,12,11c1.1,0,2-1,2-2.2
	S13.1,6.6,12,6.6z M10.8,9.7c-0.1,0.1-0.3,0.3-0.3,0.4V14H7.8c0.1-0.2,0.1-0.4,0.1-0.6c0-1.1-1-2-2.2-2s-2.2,0.9-2.2,2
	c0,0.2,0,0.4,0.1,0.6H0.9v-3.1C1.1,11,1.3,11,1.5,11c1.1,0,2-1,2-2.2s-0.9-2.2-2-2.2c-0.2,0-0.4,0-0.6,0.1V3.6h3.5
	c0.2,0,0.3-0.1,0.4-0.3c0.1-0.1,0-0.4-0.1-0.5C4.5,2.6,4.4,2.3,4.4,2.1C4.4,1.5,5,1,5.7,1C6.4,1,7,1.5,7,2.1c0,0.3-0.1,0.5-0.3,0.7
	C6.5,2.9,6.5,3.1,6.6,3.3C6.6,3.4,6.8,3.6,7,3.6h3.5v3.9c0,0.2,0.1,0.4,0.3,0.4c0.1,0.1,0.4,0,0.5-0.1c0.2-0.2,0.4-0.3,0.7-0.3
	c0.6,0,1.1,0.6,1.1,1.3s-0.5,1.3-1.1,1.3c-0.3,0-0.5-0.1-0.7-0.3C11.1,9.7,10.9,9.6,10.8,9.7z"/>
</svg>
