<svg xmlns="http://www.w3.org/2000/svg" width="101" height="34" viewBox="0 0 101 34">
  <g fill="#007DC1">
    <path d="M12.6 8.6C5.7 8.6-7.10542736e-15 14.2-7.10542736e-15 21.2-7.10542736e-15 28.2 5.6 33.8 12.6 33.8 19.6 33.8 25.2 28.2 25.2 21.2 25.2 14.2 19.5 8.6 12.6 8.6zM12.6 27.5C9.1 27.5 6.3 24.7 6.3 21.2 6.3 17.7 9.1 14.9 12.6 14.9 16.1 14.9 18.9 17.7 18.9 21.2 18.9 24.7 16.1 27.5 12.6 27.5zM34.7 25.4C34.7 24.4 35.9 23.9 36.6 24.6 39.8 27.8 44.9 33.3 45 33.3 45.1 33.4 45.2 33.5 45.4 33.6 45.5 33.6 45.7 33.6 46 33.6L51.7 33.6C52.7 33.6 53 32.4 52.5 31.8L43.1 22.2 42.6 21.7C41.5 20.4 41.7 19.9 42.9 18.6L50.3 10.3C50.8 9.7 50.5 8.5 49.4 8.5L44.2 8.5C44 8.5 43.9 8.5 43.7 8.6 43.4 8.7 43.3 8.8 43.2 8.9 43.2 8.9 39 13.4 36.5 16.1 35.8 16.9 34.6 16.3 34.6 15.3L34.6 1.2C34.6.5 34 .2 33.5.2L29.3.2C28.6.2 28.2.7 28.2 1.1L28.2 32.7C28.2 33.4 28.8 33.6 29.3 33.6L33.5 33.6C34.2 33.6 34.6 33.1 34.6 32.6L34.6 32.3 34.7 25.4 34.7 25.4zM69 32.6L68.6 28.4C68.5 27.8 68 27.4 67.4 27.5 67.1 27.5 66.7 27.6 66.4 27.6 63.1 27.6 60.3 25 60.1 21.6 60.1 21.5 60.1 21.4 60.1 21.2L60.1 16.1C60.1 15.4 60.6 14.9 61.3 14.9L66.9 14.9C67.3 14.9 67.9 14.6 67.9 13.8L67.9 9.8C67.9 9 67.4 8.6 67 8.6L61.3 8.6C60.6 8.6 60.1 8.1 60.1 7.5L60.1 1.1C60.1.7 59.8.1 59 .1L54.8.1C54.3.1 53.8.4 53.8 1.1 53.8 1.1 53.8 21.5 53.8 21.6 54 28.4 59.6 33.8 66.4 33.8 67 33.8 67.5 33.7 68.1 33.7 68.7 33.6 69.1 33.1 69 32.6zM99.3 27.3C95.7 27.3 95.2 26 95.2 21.3 95.2 21.3 95.2 21.3 95.2 21.3L95.2 9.7C95.2 9.3 94.9 8.6 94.1 8.6L89.9 8.6C89.4 8.6 88.8 9 88.8 9.7L88.8 10.2C87 9.2 84.9 8.6 82.6 8.6 75.7 8.6 70 14.2 70 21.2 70 28.2 75.6 33.8 82.6 33.8 85.7 33.8 88.6 32.6 90.8 30.8 92 32.6 93.9 33.8 96.9 33.8 97.4 33.8 100.1 33.9 100.1 32.6L100.1 28.1C100 27.7 99.7 27.3 99.3 27.3zM82.6 27.5C79.1 27.5 76.3 24.7 76.3 21.2 76.3 17.7 79.1 14.9 82.6 14.9 86.1 14.9 88.9 17.7 88.9 21.2 88.9 24.7 86.1 27.5 82.6 27.5z"/>
  </g>
</svg>
