<svg height="62" viewBox="0 0 70 62" width="70" xmlns="http://www.w3.org/2000/svg"><g fill="none" fill-rule="evenodd" stroke="#24ccfd"><path d="m26.746 59.06c-4.322-2.495-4.322-6.372 0-8.867 4.499-2.599 11.855-2.599 16.354 0 4.321 2.495 4.321 6.372 0 8.867-4.5 2.599-11.855 2.599-16.354 0z" opacity=".2"/><path d="m22.772 53.065c-6.514-3.762-6.514-9.692 0-13.455 6.695-3.865 17.608-3.865 24.3 0 6.515 3.763 6.515 9.693 0 13.455-6.692 3.866-17.605 3.866-24.3 0z" opacity=".4"/><path d="m18.8 47.07v-.001c-8.708-5.03-8.708-13.014 0-18.043 8.887-5.132 23.357-5.132 32.246 0 8.708 5.03 8.708 13.014 0 18.043-8.889 5.134-23.359 5.134-32.246 0z" opacity=".6"/><path d="m14.828 40.153c-10.903-6.296-10.903-16.336 0-22.632 11.08-6.399 29.107-6.399 40.19 0 10.902 6.296 10.902 16.336 0 22.632-11.083 6.4-29.11 6.4-40.19 0z" opacity=".8"/><path d="m10.856 34.158c-13.097-7.563-13.097-19.656 0-27.22 13.274-7.668 34.858-7.668 48.133-.001 13.097 7.564 13.097 19.657 0 27.22-13.275 7.667-34.858 7.667-48.133 0z"/></g></svg>