<svg height="66" viewBox="0 0 61 66" width="61" xmlns="http://www.w3.org/2000/svg"><g fill="none" fill-rule="evenodd" stroke="#24ccfd"><path d="m40 18.794h-35.5a4 4 0 0 0 -4 4v38a4 4 0 0 0 4 4h38a4 4 0 0 0 4-4v-38a3.98 3.98 0 0 0 -.902-2.53"/><path d="m51.736 12.477a3.996 3.996 0 0 1 1.764 3.317v38a4 4 0 0 1 -4 4h-3m-1.583-46.001h-33.417a4 4 0 0 0 -4 4v3" opacity=".6"/><path d="m57.713 4.98a4.003 4.003 0 0 1 2.787 3.813v38a4 4 0 0 1 -4 4h-3m-3.583-46h-31.417a4 4 0 0 0 -4 4v3" opacity=".3"/><path d="m6 31.294 17 16 34.083-47"/></g></svg>