<svg height="699" viewBox="0 0 729 699" width="729" xmlns="http://www.w3.org/2000/svg" xmlns:xlink="http://www.w3.org/1999/xlink"><mask id="a" fill="#fff"><path d="m0 0h786v737h-786z" fill="none"/></mask><g fill="none" fill-rule="evenodd" mask="url(#a)" stroke-width="2" transform="translate(0 -38)"><path d="m1378.68 1148.575c-192.663-111.234-23.431-276.166-306.947-177.216-283.512 98.953-206.532 3.319-307.974-160.304-101.443-163.623-19.625-282.714-137.171-350.58-117.546-67.865-185.782 50.322-293.532-11.888-107.751-62.21-224.851 80.293-274.462 7.869-49.616-72.416-22.16-214.146-150.28-261.852-128.12-47.707-102.21-172.825-310.386-152.938" stroke="#24ccfd"/><path d="m1383.1 1140.919c-99.825-57.635-108.941-115.412-162.71-157.854-32.305-25.598-69.718-33.017-159.378-15.42-36.525 7.173-65.248 6.86-95.475 10.013-147.354 15.332-140.733-46.243-231.758-164.942-80.134-104.479-63.628-190.47-96.67-256.573-11.78-23.61-29.103-44.629-58.185-62.404-64.312-38.93-114.763-22.149-169.46-10.208-36.174 7.9-72.316 8.845-112.79-16.755-69.787-43.969-140.61-8.982-188.34-11.3-20.344-.859-36.624-8.21-47.281-31.907-26.069-57.992-17.035-145.225-65.894-202.744-18.976-22.328-43.427-41.566-77.953-54.29-74.39-27.335-101.384-76.893-148.573-106.842-36.87-23.415-90.168-28.553-166.91-24.6" opacity=".9" stroke="#2db7fd"/><path d="m1387.526 1133.253c-79.863-46.109-118.198-71.735-189.952-122.275-42.85-30.282-75.403-45.859-147.29-47.034-31.342-.526-54.604-10.817-87.102-11.537-134.865-2.973-164.004-39.835-259.389-138.031-85.744-88.27-77.233-164.078-114.554-226.741-13.273-22.345-30.789-42.95-57.984-60.635-58.64-37.466-107.039-29.375-162.664-19.705-35.806 6.222-70.956 3.695-108.303-22.332-64.019-44.302-125.366-31.632-162.707-49.015-15.81-7.354-27.516-19.642-34.06-45.271-16.428-64.363-2.48-150.991-58.134-202.926-21.29-19.895-46.452-37.312-79.3-49.278-73.639-26.69-105.833-70.701-152.383-94.78-40.466-20.907-100.796-14.873-168.198-15.153" opacity=".8" stroke="#36a3fe"/><path d="m1391.946 1125.598c-59.894-34.58-127.46-28.061-217.192-86.71-53.382-34.97-80.872-60.48-135.185-78.666-26.214-8.766-44.16-27.912-78.742-33.052-123.405-18.38-187.531-33.144-287.015-111.132-91.578-71.796-90.838-137.685-132.446-196.927-14.756-21.087-32.392-41.394-57.777-58.833-52.802-36.29-99.353-36.534-155.866-29.228-35.45 4.588-69.597-1.443-103.817-27.897-58.253-44.65-110.217-54.048-137.073-86.73-11.315-13.768-18.312-31.216-20.848-58.641-6.568-71.08 12.15-156.832-50.36-203.126-23.596-17.47-49.487-33.05-80.648-44.25-72.896-26.053-110.574-64.038-156.208-82.69-44.274-18.09-111.429-1.208-169.468-5.748" opacity=".7" stroke="#3f8ffe"/><path d="m1396.372 1117.931c-39.926-23.051-136.726 15.61-244.44-51.121-63.915-39.673-85.412-77.442-123.095-110.294-20.68-18.033-34.008-44.388-70.36-54.595-112.946-31.71-209.503-29.244-314.645-84.222-99.351-51.963-104.444-111.291-150.333-167.11-16.257-19.812-34.08-39.715-57.579-57.05-47.136-34.792-91.676-43.632-149.064-38.736-35.12 3.007-68.237-6.592-99.337-33.451-52.483-44.996-95.118-76.388-111.438-124.457-6.84-20.14-8.985-42.916-7.632-71.997 3.62-78.106 26.4-162.025-42.59-203.315-25.71-15.382-52.522-28.8-82-39.24-72.14-25.418-115.553-56.93-160.02-70.614-48.295-14.857-122.061 12.469-170.743 3.666" opacity=".6" stroke="#477afe"/><path d="m1400.792 1110.276c-19.963-11.526-145.989 59.297-271.68-15.556-74.446-44.373-88.36-96.385-110.992-141.914-14.192-28.522-24.252-60.2-61.998-76.123-103.395-43.66-235.337-18.512-342.274-57.337-103.911-37.721-118.05-84.899-168.223-137.267-17.745-18.558-35.841-37.91-57.37-55.276-41.626-33.068-84.1-50.486-142.273-48.235-34.83 1.545-66.876-11.73-94.844-39.027-46.714-45.341-80.185-98.599-85.81-162.174-2.433-26.46.478-54.668 5.59-85.361 14.179-85.3 41.71-169.089-34.821-203.504-28.085-12.853-55.558-24.539-83.352-34.23-71.403-24.77-120.708-49.415-163.836-58.53-52.567-11.099-132.699 26.143-172.03 13.1" opacity=".5" stroke="#5066ff"/><path d="m1405.218 1102.61s-155.256 102.969-298.922 20.023c-143.666-82.945-57.836-216.53-152.524-271.197-94.694-54.672-259.526-10.469-369.905-30.427-110.374-19.956-131.655-58.506-186.115-107.454-54.455-48.944-101.33-111.03-192.643-111.223-91.314-.192-158.419-117.726-150.533-244.492 7.884-126.767 104.348-263.68-8.246-302.423-112.59-38.74-195.278-68.961-252.361-75.655-57.083-6.693-143.321 39.814-173.296 22.508" opacity=".4" stroke="#5951ff"/></g></svg>