<svg width="71" height="65" viewBox="0 0 71 65" xmlns="http://www.w3.org/2000/svg"><title>Icon</title><g stroke="#24CCFD" fill="none" fill-rule="evenodd"><path d="M46.483 4.89A19.403 19.403 0 0 0 35.5 1.5a19.408 19.408 0 0 0-10.984 3.39" opacity=".3"/><path d="M43.95 8.608A14.926 14.926 0 0 0 35.5 6c-3.135 0-6.043.964-8.449 2.608" opacity=".6"/><path d="M41.414 12.326A10.448 10.448 0 0 0 35.5 10.5c-2.194 0-4.23.675-5.914 1.826" opacity=".9"/><path d="M62.429 28.036C62.429 34.644 57.073 40 50.464 40 43.857 40 38.5 34.644 38.5 28.036c0-6.607 5.357-11.964 11.964-11.964 6.609 0 11.965 5.357 11.965 11.964zM32.5 28.036C32.5 34.644 27.144 40 20.536 40c-6.608 0-11.965-5.356-11.965-11.964 0-6.607 5.357-11.964 11.965-11.964S32.5 21.429 32.5 28.036z"/><path d="M26.065 38.645c2.604.627 4.962 1.691 6.982 3.11 0 0 1.52 1.063 2.57 1.947M15.003 38.651c-.766.182-1.513.396-2.239.637-.805.267-4.026 1.943-4.026 1.943C3.674 44.425.5 49.734.5 56.001c0 5.145 9.647 8 20 8 3.864 0 7.63-.399 10.834-1.165 0 0 2.436-.713 3.926-1.525" stroke-linecap="round" stroke-linejoin="round"/><path d="M44.932 38.647C36.394 40.703 30.5 47.462 30.5 56c0 1.468.787 2.752 2.153 3.835 0 0 1.455 1.165 4.9 2.415C41.099 63.535 45.749 64 50.5 64c10.353 0 20-2.856 20-8 0-4.748-1.908-8.864-4.908-12.09-2.408-2.59-5.876-4.035-5.876-4.035a21.435 21.435 0 0 0-3.712-1.245"/></g></svg>