<?xml version="1.0" encoding="UTF-8"?>
<svg xmlns="http://www.w3.org/2000/svg" id="Layer_1" viewBox="0 0 1402.5 1064.45">
  <defs>
    <style>.cls-1{fill:#2d2e83;}.cls-2{fill:none;}</style>
  </defs>
  <title>Showpad-vertical-blue</title>
  <path class="cls-1" d="M259.82,723.56a64.81,64.81,0,0,0,16.81,14.54,41.73,41.73,0,0,0,22,5.91,33.1,33.1,0,0,0,10.57-1.71,26.34,26.34,0,0,0,8.86-4.88,25.1,25.1,0,0,0,6-7.5,20.73,20.73,0,0,0,2.27-9.77q0-9.09-5.57-14.66A51.69,51.69,0,0,0,307,695.84q-8.31-4.1-17.84-7.73a90.27,90.27,0,0,1-17.5-8.86,52.19,52.19,0,0,1-14.43-14.09q-5.79-8.4-5.79-20.9A38,38,0,0,1,255,627.9a42,42,0,0,1,10.12-13.52,47.73,47.73,0,0,1,15.22-9.09,54,54,0,0,1,19.2-3.3,63,63,0,0,1,14,1.48,64,64,0,0,1,11.82,3.86A70.08,70.08,0,0,1,342.3,617.9l-13.41,16.59q-12.94-10.9-28.4-10.91a34.22,34.22,0,0,0-9.66,1.36,27.4,27.4,0,0,0-8.41,4.09,21.46,21.46,0,0,0-6,6.71,18.27,18.27,0,0,0-2.27,9.2,16.07,16.07,0,0,0,5.57,12.5,58.38,58.38,0,0,0,13.86,9q8.29,4,17.72,7.84a104.68,104.68,0,0,1,17.16,8.86,60.2,60.2,0,0,1,7.72,6.13,44.92,44.92,0,0,1,6.59,7.85,37.91,37.91,0,0,1,4.66,10,42.13,42.13,0,0,1,1.7,12.39,45.37,45.37,0,0,1-3.86,19A44.17,44.17,0,0,1,334.8,753a46.64,46.64,0,0,1-15.56,9.32,56.18,56.18,0,0,1-19.43,3.29,70.53,70.53,0,0,1-30.68-6.81,72.86,72.86,0,0,1-25-19.77Z"></path>
  <path class="cls-1" d="M390.69,665.84a60.72,60.72,0,0,1,12.39-7.72q7.83-3.87,19-3.87A48,48,0,0,1,444,659.37a50,50,0,0,1,16.93,13.74,45.34,45.34,0,0,1,7.83,15.34q2.61,8.74,2.62,22.61v52.26H449.77v-53.4q0-10.21-1.7-15.67a27.21,27.21,0,0,0-4.66-9.09,28.31,28.31,0,0,0-9.66-7.62,27.79,27.79,0,0,0-12.38-2.84q-10.68,0-18.29,4.66a47.68,47.68,0,0,0-12.39,10.57v73.39H369.11V602h21.58Z"></path>
  <path class="cls-1" d="M487.89,709.92a57.29,57.29,0,0,1,4.21-22,54.4,54.4,0,0,1,11.59-17.72,52.49,52.49,0,0,1,17.49-11.7,59.2,59.2,0,0,1,43.85,0,52.53,52.53,0,0,1,17.5,11.7,54.56,54.56,0,0,1,11.59,17.72,60.24,60.24,0,0,1,0,44.2,54.82,54.82,0,0,1-11.59,17.61,52.68,52.68,0,0,1-17.5,11.7,59.33,59.33,0,0,1-43.85,0,52.64,52.64,0,0,1-17.49-11.7,54.66,54.66,0,0,1-11.59-17.61A57,57,0,0,1,487.89,709.92Zm21.59,0a37.78,37.78,0,0,0,2.5,13.75,34.62,34.62,0,0,0,6.93,11.25,32,32,0,0,0,10.56,7.5,35.54,35.54,0,0,0,27.27,0,32.09,32.09,0,0,0,10.57-7.5,34.79,34.79,0,0,0,6.93-11.25,39,39,0,0,0,0-27.49,34.79,34.79,0,0,0-6.93-11.25,32.09,32.09,0,0,0-10.57-7.5,35.42,35.42,0,0,0-27.27,0,32,32,0,0,0-10.56,7.5A34.62,34.62,0,0,0,512,696.18,37.73,37.73,0,0,0,509.48,709.92Z"></path>
  <path class="cls-1" d="M695.91,656.53l29.31,72.93,29.31-72.93H776.8L733.4,763.32h-15l-30-75-30,75h-15L600,656.53h22.27l29.31,72.93,29.31-72.93Z"></path>
  <path class="cls-1" d="M814.4,817.85H792.82V656.53h20.9v9.77a46.1,46.1,0,0,1,15.79-9.21,55.42,55.42,0,0,1,17.61-2.84,52.9,52.9,0,0,1,14.09,1.82,50.65,50.65,0,0,1,12,5,56.44,56.44,0,0,1,19.88,20,58.64,58.64,0,0,1,.12,57.6,56,56,0,0,1-19.77,19.88,51.73,51.73,0,0,1-12.5,5.11,54.23,54.23,0,0,1-14.31,1.93q-18.87,0-32.27-11.59Zm0-87.93a37.93,37.93,0,0,0,13.29,11.25,35.48,35.48,0,0,0,30.22,1.13,36.33,36.33,0,0,0,11.25-7.61,33.8,33.8,0,0,0,7.39-11.13,35.59,35.59,0,0,0,2.61-13.64,36.71,36.71,0,0,0-9.43-24.65,32,32,0,0,0-10.79-7.73,34.27,34.27,0,0,0-14.09-2.84A35.84,35.84,0,0,0,827.24,679a40.17,40.17,0,0,0-12.84,10.91Z"></path>
  <path class="cls-1" d="M1003.15,753.55a45.79,45.79,0,0,1-15,9,52.1,52.1,0,0,1-17.95,3.06,54.2,54.2,0,0,1-14.32-1.93,51.73,51.73,0,0,1-12.5-5.11,56,56,0,0,1-19.77-19.88,58.71,58.71,0,0,1,.12-57.6,56.44,56.44,0,0,1,19.88-20,50.65,50.65,0,0,1,12-5,52.9,52.9,0,0,1,14.09-1.82,55.42,55.42,0,0,1,17.61,2.84,46.1,46.1,0,0,1,15.79,9.21v-9.77h20.91V763.32h-20.91Zm-.68-63.62A40.17,40.17,0,0,0,989.63,679,35.87,35.87,0,0,0,972,674.7a34.16,34.16,0,0,0-14.08,2.84,32,32,0,0,0-10.8,7.73,36.71,36.71,0,0,0-9.43,24.65,35.41,35.41,0,0,0,2.62,13.64,33.47,33.47,0,0,0,7.38,11.13A36.33,36.33,0,0,0,959,742.3a35.48,35.48,0,0,0,30.22-1.13,37.93,37.93,0,0,0,13.29-11.25Z"></path>
  <path class="cls-1" d="M1129.1,753.55a45.94,45.94,0,0,1-15,9,52.06,52.06,0,0,1-17.95,3.06,54.12,54.12,0,0,1-14.31-1.93,51.56,51.56,0,0,1-12.5-5.11,56,56,0,0,1-19.77-19.88,58.67,58.67,0,0,1,.11-57.6,56.55,56.55,0,0,1,19.89-20,50.48,50.48,0,0,1,12-5,53.81,53.81,0,0,1,31.13,1,50.61,50.61,0,0,1,15.67,8.75V602H1150V763.32h-20.9Zm-.69-63.62A40.24,40.24,0,0,0,1115.58,679,35.89,35.89,0,0,0,1098,674.7a34.24,34.24,0,0,0-14.09,2.84,32,32,0,0,0-10.79,7.73,36.71,36.71,0,0,0-9.43,24.65,35.59,35.59,0,0,0,2.61,13.64,33.49,33.49,0,0,0,7.39,11.13,36.29,36.29,0,0,0,11.24,7.61,35.48,35.48,0,0,0,30.22-1.13,37.76,37.76,0,0,0,13.29-11.25Z"></path>
  <path class="cls-1" d="M968.63,404.86c0-2.11-.06-4.2-.16-6.29,0-.32-.05-.64-.07-1-.11-1.8-.23-3.6-.41-5.39l0-.22A124.44,124.44,0,0,0,857.11,281.15l-.23,0c-1.79-.18-3.58-.31-5.38-.41-.33,0-.64-.06-1-.07-2.08-.11-4.18-.16-6.28-.16h0a123.62,123.62,0,0,0-88,36.44L714.12,359l30.73,30.74,30.6-30.61-.13-.12,11.49-11.49a80.63,80.63,0,0,1,57.39-23.77h0c1.37,0,2.73,0,4.08.1l.63.05c1.18.07,2.35.15,3.51.27l.17,0a81.3,81.3,0,0,1,72.27,72.25,1.11,1.11,0,0,0,0,.19c.12,1.16.2,2.32.27,3.49,0,.22,0,.43,0,.65.07,1.35.11,2.71.11,4.08v.05c0,1.39,0,2.77-.11,4.14,0,.18,0,.36,0,.54-.07,1.2-.15,2.41-.27,3.6,0,0,0,.05,0,.08a81.31,81.31,0,0,1-45,64.5l-.77.39c-.74.35-1.49.68-2.25,1-.54.24-1.09.49-1.64.72l-1.43.56c-.85.33-1.69.66-2.55,1l-.57.19a81.23,81.23,0,0,1-83.85-19.31l-11.34-11.35,0,0-76.64-76.64h0L576.53,252l-30.6,30.61L423.51,405.05l30.61,30.6L576.53,558.07l30.6-30.61L683.64,451,653,420.35l-76.51,76.51-91.81-91.81,91.81-91.81,45.91,45.91h0L744.85,481.56h0l11.35,11.34a124,124,0,0,0,88,36.39h0v.06a123.92,123.92,0,0,0,40.48-6.8l1-.35c1.27-.45,2.52-.92,3.76-1.41.78-.31,1.56-.6,2.33-.92s1.6-.69,2.39-1c1.2-.52,2.39-1.06,3.58-1.62l1-.52a124.3,124.3,0,0,0,69.16-99s0-.08,0-.12c.19-1.82.32-3.65.42-5.49,0-.29.05-.57.07-.86.1-2.1.16-4.22.16-6.34h0Z"></path>
  <rect class="cls-2" x="1.75" y="2.22" width="1399" height="1059"></rect>
</svg>
