<svg xmlns="http://www.w3.org/2000/svg" width="143" height="34" viewBox="0 0 143 34">
  <g fill="#123466">
    <path d="M59.3646135 17.7826529L51.6865664 17.7826529 51.6865664 17.4967326C51.7202351 16.6841819 51.7875724 16.2909645 52.1243815 15.6882036 52.6632026 14.6922254 53.909188 14.0108703 55.5256512 14.0108703 57.141992 14.0108703 58.3544312 14.6922254 58.8931298 15.6882036 59.2298164 16.2909645 59.3308224 16.6841819 59.3646135 17.4967326L59.3646135 17.7826529zM55.4248901 10.7301167C52.4558036 10.7301167 50.0802651 12.2155225 48.908718 14.9111312 48.3613267 16.1711022 48.1402154 17.6959283 48.1302985 19.4561674L48.1302985 19.6668196C48.1302985 26.385392 51.5260587 28.6737399 55.9192685 28.6737399 58.6804663 28.6737399 60.8266906 27.4709283 62.2832582 25.8854935 62.3317411 25.8327688 62.3273336 25.7499862 62.2744432 25.7016964L60.1954337 23.8112471C60.1447471 23.7651746 60.0672479 23.767392 60.0185202 23.8155587 58.8084072 25.0074065 57.7198687 25.5330514 55.9890545 25.5330514 53.117301 25.5330514 51.6243712 23.7400442 51.6243712 20.7110877L51.6243712 20.7081312 62.5616675 20.7081312C62.632188 20.7081312 62.6896084 20.6509717 62.6904654 20.5800152L62.7194817 17.9541312C62.7194817 13.6898413 60.0383541 10.7301167 55.4248901 10.7301167L55.4248901 10.7301167zM93.6008336 17.7826529L85.9227866 17.7826529 85.9227866 17.4967326C85.9564552 16.6841819 86.0237926 16.2909645 86.3606016 15.6882036 86.8995451 14.6922254 88.1454081 14.0108703 89.7619937 14.0108703 91.3783345 14.0108703 92.5906513 14.6922254 93.1293499 15.6882036 93.466159 16.2909645 93.567165 16.6841819 93.6008336 17.4967326L93.6008336 17.7826529zM89.6611102 10.7301167C86.6920237 10.7301167 84.3166076 12.2155225 83.1450605 14.9111312 82.5976693 16.1711022 82.3764355 17.6959283 82.366641 19.4561674L82.366641 19.6668196C82.366641 26.385392 85.7624013 28.6737399 90.155611 28.6737399 92.9166864 28.6737399 95.0630331 27.4709283 96.5196008 25.8854935 96.5680836 25.8327688 96.5636761 25.7499862 96.5107857 25.7016964L94.4317763 23.8112471C94.3810896 23.7651746 94.3035905 23.767392 94.2548628 23.8155587 93.0447497 25.0074065 91.9560888 25.5330514 90.225397 25.5330514 87.3536436 25.5330514 85.8605914 23.7400442 85.8605914 20.7110877L85.8605914 20.7081312 96.7978876 20.7081312C96.8684081 20.7081312 96.9258285 20.6509717 96.9266855 20.5800152L96.9557018 17.9541312C96.9557018 13.6898413 94.2746967 10.7301167 89.6611102 10.7301167L89.6611102 10.7301167zM32.767495 11.0671971L32.767495 13.9930449C32.767495 14.0646174 32.8251603 14.1227623 32.896293 14.1227623L40.9033135 14.1227623 32.3596757 28.2694725C32.3075199 28.3558275 32.3693478 28.4663275 32.4697416 28.4663275L46.5289188 28.4663275C46.6000515 28.4663275 46.6578392 28.408429 46.6578392 28.3367333L46.6578392 25.4112551C46.6578392 25.3396826 46.6000515 25.2817841 46.5289188 25.2817841L38.1683161 25.2817841 46.6737553 11.1342116C46.7257887 11.0478565 46.6638384 10.9374797 46.563567 10.9374797L32.896293 10.9374797C32.8251603 10.9374797 32.767495 10.9956246 32.767495 11.0671971M124.474387 6.41948333L121.377482 6.41948333C121.306349 6.41948333 121.248684 6.47750507 121.248684 6.54907754L121.248684 10.9375413 118.954562 10.9375413C118.88343 10.9375413 118.825764 10.9954399 118.825764 11.0671355L118.825764 13.9953239C118.825764 14.0668964 118.88343 14.1249181 118.954562 14.1249181L121.248684 14.1249181 121.248684 23.2954326C121.248684 27.1019543 123.999597 28.5952442 127.011045 28.5893312L127.010555 28.5895775C127.320307 28.5895775 127.510688 28.5880993 127.682704 28.5813239 127.751878 28.578737 127.806605 28.5214543 127.806605 28.4518529L127.806605 25.4587442C127.806605 25.3842152 127.744165 25.3257007 127.670216 25.3295196 127.508362 25.3378964 127.354833 25.3353094 127.155882 25.3260703 125.458981 25.2466138 124.603307 24.357563 124.603307 22.3324688L124.603307 14.1249181 128.013025 14.1249181C128.084157 14.1249181 128.141945 14.0668964 128.141945 13.9953239L128.141945 11.0671355C128.141945 10.9954399 128.084157 10.9375413 128.013025 10.9375413L124.603307 10.9375413 124.603307 6.54907754C124.603307 6.47750507 124.545519 6.41948333 124.474387 6.41948333M141.187108 19.6330043C140.040292 18.8261203 138.352084 18.3791928 136.242099 18.0146783 133.448212 17.5319029 133.104792 16.9945551 133.132461 15.8849971 133.150581 15.1570768 133.516039 14.6878522 134.036863 14.3933087 134.911024 13.930613 135.828403 13.9009246 136.690076 13.9757 137.686791 14.0623014 138.942938 14.4387652 139.834729 15.4172507 139.882233 15.4693594 139.962915 15.4723159 140.015071 15.4248884L142.118077 13.5126348C142.167662 13.4675478 142.175252 13.3912942 142.134238 13.3380768 141.757883 12.8504971 141.27232 12.3894029 140.718685 12.0279681 140.077756 11.6092507 139.373407 11.2898232 138.640655 11.0731348 137.853053 10.8400623 136.958323 10.7506275 136.139502 10.7328884 134.772186 10.7029536 133.470984 11.0658667 132.86654 11.3322 132.148357 11.6487942 131.477922 12.0891928 130.958078 12.6835768 130.437621 13.2787 130.086365 14.0062507 129.926103 14.7814754 129.742088 15.6722507 129.763881 16.6408812 130.029435 17.5144101 130.214061 18.1216058 130.540464 18.672258 130.967138 19.1404971 132.207859 20.5018522 134.156356 20.8879246 136.062002 21.2332217 137.364918 21.4693739 139.678139 21.5697725 139.632717 23.3722652 139.588642 25.1240043 137.477188 25.6615986 136.060288 25.6615986 134.416768 25.6615986 132.996685 25.0769464 131.854399 23.8982797 131.805793 23.848142 131.726825 23.8446928 131.675404 23.8916275L129.616841 25.7633522C129.564685 25.8106565 129.559298 25.8919609 129.605944 25.9448087 131.113076 27.6535551 133.665283 28.6738014 136.276135 28.6738014 139.618148 28.6738014 142.779452 27.0411855 142.957712 23.5612362 143.049781 21.7647797 142.458926 20.5279681 141.187108 19.6330043M114.455559 2.85014855C113.146522 2.85014855 112.085408 3.91794565 112.085408 5.2349529 112.085408 6.55220652 113.146522 7.62000362 114.455559 7.62000362 115.764597 7.62000362 116.825711 6.55220652 116.825711 5.2349529 116.825711 3.91794565 115.764597 2.85014855 114.455559 2.85014855"/>
    <path d="M104.727519 10.9375167L104.727519 8.51513986C104.827913 6.71277029 106.047208 6.01712536 107.430072 5.98879203 108.042352 5.97647319 108.904882 6.0199587 109.606292 6.11284275 109.683302 6.12306739 109.751251 6.06258188 109.751251 5.98435725L109.751251 3.08142246C109.751251 3.01896594 109.707543 2.96500942 109.646572 2.9535529 108.950427 2.82321957 108.203717 2.75756014 107.488595 2.75756014 107.444519 2.75756014 107.368367 2.7569442 107.335188 2.7569442 107.302988 2.7569442 107.23259 2.75756014 107.176394 2.75756014 103.777206 2.75756014 101.36555 4.67437174 101.36555 8.20753841L101.36555 9.13847319 101.36555 10.9375167 98.7739199 10.9375167C98.7027872 10.9375167 98.6451219 10.9951688 98.6451219 11.0667413 98.6448771 11.5814225 98.6448771 13.4808645 98.6447546 13.9955457 98.6447546 14.0671181 98.7025423 14.1248935 98.773675 14.1248935L101.36555 14.1248935 101.36555 28.3451471C101.36555 28.4167196 101.423338 28.4746181 101.49447 28.4746181L104.591253 28.4746181C104.662386 28.4746181 104.720051 28.4167196 104.720051 28.3451471L104.720051 14.1248935 112.778493 14.1248935 112.778493 28.3451471C112.778493 28.4167196 112.836158 28.4746181 112.907413 28.4746181L116.003583 28.4746181C116.074716 28.4746181 116.132259 28.4168428 116.132259 28.3452703 116.132626 26.8341181 116.132626 12.5781399 116.132626 11.0669877 116.132626 10.9954152 116.075083 10.9375167 116.003828 10.9375167L104.727519 10.9375167zM77.5911266 12.3085913C76.4854477 11.2820623 75.03341 10.7301783 73.1330282 10.7301783 71.8070949 10.7301783 70.6682371 10.9286348 69.5506823 11.6739246 69.3007996 11.8372725 69.0405102 12.0508812 68.871922 12.1982145 68.8197662 12.2437942 68.7678552 12.2910986 68.7158218 12.3395116L68.7158218 11.0672217C68.7158218 10.9956493 68.6581566 10.9375043 68.5870239 10.9375043L65.4897516 10.9375043C65.4186189 10.9375043 65.3609537 10.9956493 65.3609537 11.0672217L65.3609537 28.336758C65.3609537 28.4083304 65.4186189 28.4663522 65.4897516 28.4663522L68.5870239 28.4663522C68.6581566 28.4663522 68.7158218 28.4083304 68.7158218 28.336758L68.7158218 16.8863957C68.7158218 15.9752942 69.3934802 15.1620043 70.1242739 14.7030043 71.0130042 14.1449609 72.530053 14.0767145 73.5507645 14.2467145 75.1849802 14.5192072 76.3194306 15.8444681 76.3194306 17.5610986L76.3194306 28.336758C76.3194306 28.4083304 76.3770958 28.4663522 76.4482285 28.4663522L79.5447662 28.4663522C79.6158989 28.4663522 79.6735641 28.4083304 79.6735641 28.336758L79.6735641 17.5610986C79.6735641 15.6409609 79.1630247 13.7680043 77.5911266 12.3085913M-.0000244863014 28.3206694L22.0376467 33.8919882 22.0376467 30.6507781 4.13179401 26.1240969 9.09602432 23.5145969 22.0376467 26.7862346 22.0376467 23.5449013 13.2600423 21.3260317 22.0376467 16.7122563 22.0376467 13.165539-.0000244863014 24.7490679-.0000244863014 28.3206694zM22.0376467 5.69416214L22.0376467 9.26600997-.0000244863014 20.849539-.0000244863014 17.3028216 8.77782483 12.6890462-.0000244863014 10.4699303-.0000244863014 7.22872012 12.9415979 10.500481 17.9059507 7.89098099-.0000244863014 3.3645462-.0000244863014.12321287 22.0376467 5.69416214z"/>
  </g>
</svg>
